<svg width="44" height="44" viewBox="0 0 44 44" fill="none" xmlns="http://www.w3.org/2000/svg"><path fill-rule="evenodd" clip-rule="evenodd" d="M20.25 7.656 13.124.53.001 13.655l7.124 7.124 13.873.75-.75-13.872.001-.001Zm3.502 29.22L30.876 44 44 30.876l-7.124-7.124-13.124 13.124Zm0 0-.75-13.874 13.874.75-13.124 13.124ZM7.124 23.75 20.998 23l-.75 13.874L13.125 44 .002 30.875l7.124-7.124Zm29.752-3.501-13.874.75.75-13.874 13.124 13.124Zm0 0L44 13.123 30.876 0l-7.124 7.124 13.124 13.124Z" fill="#fff"/></svg>