<svg width="101" height="30" viewBox="0 0 101 30" fill="none" xmlns="http://www.w3.org/2000/svg"><path d="M86.755 29.977c-1.9.011-3.78-.387-5.512-1.167a14.367 14.367 0 0 1-4.543-3.23 15.302 15.302 0 0 1-3.076-4.779 15.705 15.705 0 0 1 0-11.623 15.31 15.31 0 0 1 3.076-4.78 14.367 14.367 0 0 1 4.542-3.23 13.655 13.655 0 0 1 11.044 0 14.39 14.39 0 0 1 4.542 3.23 15.246 15.246 0 0 1 4.17 10.591 15.24 15.24 0 0 1-4.17 10.59 14.375 14.375 0 0 1-4.542 3.232 13.281 13.281 0 0 1-5.532 1.167Zm0-3.469a9.82 9.82 0 0 0 4.2-.909 10.861 10.861 0 0 0 3.428-2.507 11.971 11.971 0 0 0-.02-16.227 11.026 11.026 0 0 0-3.428-2.488 10.124 10.124 0 0 0-8.382 0 10.858 10.858 0 0 0-3.427 2.509 11.947 11.947 0 0 0-2.312 3.674 12.157 12.157 0 0 0 .01 8.888 11.962 11.962 0 0 0 2.323 3.675 10.806 10.806 0 0 0 3.427 2.487 9.88 9.88 0 0 0 4.18.898Zm-24.388-9.069a9.282 9.282 0 0 0 3.484-1.633 8.113 8.113 0 0 0 2.26-2.859 8.645 8.645 0 0 0 .827-3.799 8.517 8.517 0 0 0-1.105-4.304 8.425 8.425 0 0 0-2.973-3.066A7.894 7.894 0 0 0 60.68.642H50.523v28.903h3.468V17.424h4.231l9.326 12.121h2.322l.028.045v-2.277l-7.53-9.874Zm-8.376-3.233V3.698h6.337a5.003 5.003 0 0 1 2.58.691 5.147 5.147 0 0 1 1.87 1.88 5.555 5.555 0 0 1 0 5.367 5.152 5.152 0 0 1-1.87 1.879 5.004 5.004 0 0 1-2.58.691h-6.337Z" fill="#302CA7"/><path fill-rule="evenodd" clip-rule="evenodd" d="M28.64.643v28.902h.814l2.803.045V17.674h5.92a7.94 7.94 0 0 0 4.14-1.125 8.455 8.455 0 0 0 4.138-7.4 8.518 8.518 0 0 0-1.104-4.305 8.425 8.425 0 0 0-2.973-3.066A7.933 7.933 0 0 0 38.177.643h-9.538Zm9.227 13.563h-5.76V3.698h5.76a4.951 4.951 0 0 1 2.57.691 5.176 5.176 0 0 1 1.859 1.88c.468.82.707 1.75.691 2.694a5.188 5.188 0 0 1-2.55 4.552 4.95 4.95 0 0 1-2.57.691ZM10.888 7.109l-3.83-3.831L0 10.334l3.83 3.831 7.46.403-.404-7.459ZM12.77 22.82l3.832 3.83 7.056-7.056-3.83-3.83-7.057 7.056Zm0 0-.402-7.46 7.46.403-7.057 7.057Zm-8.94-7.057 7.46-.403-.403 7.46-3.83 3.83L0 19.594l3.83-3.831Zm15.997-1.883-7.46.403.404-7.46 7.056 7.057Zm0 0 3.831-3.831-7.056-7.057-3.831 3.831 7.056 7.057Z" fill="#302CA7"/></svg>