<svg width="495" height="598" viewBox="0 0 495 598" fill="none" xmlns="http://www.w3.org/2000/svg"><path fill-rule="evenodd" clip-rule="evenodd" d="m186.734.5 18.628 18.628-.003.003 1.961 36.274-36.273-1.961h-.004l.002-.002-18.627-18.626L186.734.5Zm45.264 113.899L213.37 95.771l.001-.002-1.96-36.275 36.274 1.961h.002v.001l18.627 18.627-34.316 34.316Zm-26.636-18.628-18.628 18.628-34.316-34.316 18.627-18.626-.002-.002h.004l36.273-1.96-1.961 36.273.003.003ZM231.998.5 213.37 19.128l.001.002-1.96 36.275 36.274-1.961h.002v-.001l18.627-18.627L231.998.5Z" fill="#1DC5F2"/><path fill-rule="evenodd" clip-rule="evenodd" d="m300.629.5 18.629 18.628-.002.003 1.96 36.274-36.274-1.961h-.002l.001-.001-18.628-18.627L300.629.5Zm45.265 113.899-18.629-18.628.003-.003-1.961-36.274 36.274 1.961h.003l-.002.002 18.627 18.626-34.315 34.316Zm-26.636-18.628-18.629 18.628-34.316-34.316 18.628-18.627h-.001.002v-.001l36.274-1.96-1.96 36.274.002.002ZM345.894.5l-18.629 18.628.003.003-1.961 36.274 36.274-1.961h.003l-.001-.001 18.626-18.627L345.894.5Z" fill="#A259FE"/><path fill-rule="evenodd" clip-rule="evenodd" d="m414.526.5 18.628 18.628-.003.003 1.961 36.274-36.273-1.961h-.004l.002-.002-18.627-18.626L414.526.5Zm45.264 113.899-18.628-18.628.003-.003-1.961-36.274 36.273 1.961h.003l-.001.002 18.627 18.626L459.79 114.4Zm-26.636-18.628-18.628 18.628-34.316-34.316 18.627-18.626-.002-.002h.004l36.273-1.96-1.961 36.273.003.003ZM459.79.5l-18.628 18.628.003.003-1.961 36.274 36.273-1.961h.003l-.001-.002 18.627-18.626L459.79.5ZM223.733 122.968l37.552 37.551-.005.005 3.952 73.12-73.12-3.952-.001-.001h-.005l.003-.002-37.548-37.548 69.172-69.173Zm0 229.596 37.552-37.551-.005-.005 3.952-73.12-73.12 3.953v-.001l-.001.001h-.005l.002.002-37.547 37.548 69.172 69.173Z" fill="#09CF82"/><path fill-rule="evenodd" clip-rule="evenodd" d="m28.207 361.133 18.629 18.628-.003.003 1.96 36.273-36.273-1.96h-.003l.002-.002-18.627-18.626 34.315-34.316Zm45.265 113.899-18.629-18.629.002-.001-1.96-36.275 36.274 1.961h.002v.001l18.627 18.627-34.316 34.316Zm-26.636-18.629-18.629 18.629-34.315-34.316 18.626-18.627v-.001h.002l36.274-1.961-1.96 36.274.002.002Zm26.636-95.27-18.629 18.628.002.002-1.96 36.275 36.274-1.961h.002v-.001l18.627-18.627-34.316-34.316Z" fill="#1DC5F2"/><path fill-rule="evenodd" clip-rule="evenodd" d="m142.103 361.133 18.628 18.628-.002.002 1.961 36.274-36.274-1.96h-.001l-.001-.001-18.627-18.628 34.316-34.315Zm45.264 113.899-18.628-18.629.003-.002-1.961-36.274 36.273 1.961h.004l-.002.001 18.627 18.627-34.316 34.316Zm-26.636-18.629-18.628 18.629-34.316-34.316 18.627-18.627v-.001h.002l36.274-1.961-1.961 36.275.002.001Zm26.636-95.27-18.628 18.628.003.003-1.961 36.273 36.273-1.96h.001l.003-.001-.002-.001 18.627-18.626-34.316-34.316Z" fill="#A259FE"/><path fill-rule="evenodd" clip-rule="evenodd" d="m185.663 483.601 18.629 18.628-.003.003 1.961 36.274-36.274-1.961h-.003l.001-.002-18.626-18.626 34.315-34.316ZM230.928 597.5l-18.629-18.629.002-.001-1.961-36.275 36.275 1.961h.002l-.001.001 18.628 18.627-34.316 34.316Zm-26.636-18.629L185.663 597.5l-34.315-34.316 18.626-18.626-.001-.002h.003l36.274-1.961-1.961 36.274.003.002Zm26.636-95.27-18.629 18.628.002.002-1.961 36.275 36.275-1.961h.002l-.001-.001 18.628-18.627-34.316-34.316Z" fill="#09CF82"/></svg>