<svg width="578" height="445" viewBox="0 0 578 445" fill="none" xmlns="http://www.w3.org/2000/svg"><mask id="a" style="mask-type:alpha" maskUnits="userSpaceOnUse" x="24" y="0" width="530" height="421"><path fill="#fff" d="M24 0h530v421H24z"/></mask><g mask="url(#a)" fill-rule="evenodd" clip-rule="evenodd" fill="#A259FE"><path d="m540.708 30 11.614 11.614-.002.002 1.223 22.615-22.616-1.222h-.001v-.001l-11.613-11.613L540.708 30Zm28.221 71.012-11.614-11.614.001-.001-1.222-22.616 22.615 1.223h.002-.001l11.614 11.614-21.395 21.394Zm-16.607-11.614-11.614 11.614-21.395-21.394 11.613-11.614h.001l22.616-1.223-1.223 22.616.002.001ZM568.929 30l-11.614 11.614.001.002-1.222 22.615 22.615-1.222h.002l-.001-.001 11.614-11.613L568.929 30Zm-99.232 71.013 11.614 11.614-.001.001 1.222 22.616-22.615-1.223v.001l-.001-.001h-.001.001l-11.614-11.614 21.395-21.394Zm28.221 71.012-11.614-11.614.002-.002-1.223-22.615 22.616 1.222h.001v.001l11.613 11.613-21.395 21.395Zm-16.607-11.614-11.614 11.614-21.395-21.395 11.614-11.613-.001-.001h.002l22.615-1.222-1.222 22.615.001.002Zm16.607-59.398-11.614 11.614.002.001-1.223 22.616 22.616-1.223v.001-.001h.001l11.613-11.614-21.395-21.394Zm42.79 0 11.614 11.614-.002.001 1.223 22.616-22.616-1.223v.001-.001h-.001l-11.613-11.614 21.395-21.394Zm28.221 71.012-11.614-11.614.001-.002-1.222-22.615 22.615 1.222h.002l-.001.001 11.614 11.613-21.395 21.395Zm-16.607-11.614-11.614 11.614-21.395-21.395 11.613-11.613v-.001h.001l22.616-1.222-1.223 22.615.002.002Zm16.607-59.398-11.614 11.614.001.001-1.222 22.616 22.615-1.223.001.001v-.001h.001-.001l11.614-11.614-21.395-21.394Zm-170.243 71.011 11.614 11.615-.002.001 1.223 22.616-22.616-1.223h-.001v-.001l-11.613-11.613 21.395-21.395Zm28.221 71.013-11.614-11.614.001-.002-1.222-22.615 22.615 1.222h.002l-.001.001 11.614 11.613-21.395 21.395ZM410.3 231.423l-11.614 11.614-21.395-21.395 11.613-11.613v-.001h.001l22.616-1.222-1.223 22.615.002.002Zm16.607-59.399-11.614 11.615.001.001-1.222 22.616 22.615-1.223h.002l-.001-.001 11.614-11.613-21.395-21.395Z"/><path d="m469.696 172.024 11.615 11.615-.002.001 1.223 22.616-22.616-1.223h-.002l.001-.001-11.613-11.613 21.394-21.395Zm28.222 71.013-11.614-11.614.001-.002-1.222-22.615 22.615 1.222h.002l-.001.001 11.614 11.613-21.395 21.395Zm-16.607-11.614-11.615 11.614-21.394-21.395 11.613-11.613-.001-.001h.002l22.616-1.222-1.223 22.615.002.002Zm16.607-59.399-11.614 11.615.001.001-1.222 22.616 22.615-1.223h.002l-.001-.001 11.614-11.613-21.395-21.395Z"/><path d="m540.707 172.024 11.614 11.615-.001.001 1.222 22.616-22.615-1.223h-.002l.001-.001-11.614-11.613 21.395-21.395Zm28.222 71.013-11.615-11.614.002-.002-1.223-22.615 22.616 1.222h.002l-.001.001 11.613 11.613-21.394 21.395Zm-16.608-11.614-11.614 11.614-21.394-21.395 11.613-11.613-.001-.001h.002l22.615-1.222-1.222 22.615.001.002Zm16.608-59.399-11.615 11.615.002.001-1.223 22.616 22.616-1.223h.002l-.001-.001 11.613-11.613-21.394-21.395Zm-241.254 71.013 11.614 11.614-.001.002 1.222 22.615-22.615-1.222h-.002l.001-.001-11.614-11.613 21.395-21.395Zm28.221 71.013-11.614-11.615.002-.001-1.223-22.616 22.616 1.223h.001l11.613 11.614-21.395 21.395Zm-16.607-11.615-11.614 11.615-21.395-21.395 11.614-11.614h-.001.002l22.615-1.223-1.222 22.616.001.001Zm16.607-59.398-11.614 11.614.002.002-1.223 22.615 22.616-1.222h.001v-.001l11.613-11.613-21.395-21.395Zm42.79 0 11.614 11.614-.002.002 1.223 22.615-22.615-1.222h-.002v-.001l-11.613-11.613 21.395-21.395Zm28.221 71.013-11.614-11.615.001-.001-1.222-22.616 22.616 1.223h.001-.001l11.614 11.614-21.395 21.395ZM410.3 302.435l-11.614 11.615-21.395-21.395 11.613-11.614h.001l22.616-1.223-1.223 22.616.002.001Zm16.607-59.398-11.614 11.614.001.002-1.222 22.615 22.615-1.222h.002v-.001l11.613-11.613-21.395-21.395Z"/><path d="m469.696 243.037 11.615 11.614-.002.002 1.223 22.615-22.616-1.222h-.002l.001-.001-11.613-11.613 21.394-21.395Zm28.222 71.013-11.614-11.615.001-.001-1.222-22.616 22.615 1.223h.002-.001l11.614 11.614-21.395 21.395Zm-16.607-11.615-11.615 11.615-21.394-21.395 11.613-11.614h-.001.002l22.616-1.223-1.223 22.616.002.001Zm16.607-59.398-11.614 11.614.001.002-1.222 22.615 22.615-1.222h.002l-.001-.001 11.614-11.613-21.395-21.395Z"/><path d="m568.929 243.037-11.614 11.614.001.002-1.222 22.615 22.615-1.222h.002v-.001l11.613-11.613-21.395-21.395Zm-28.221 0 11.614 11.614-.002.002 1.223 22.615-22.616-1.222h-.001v-.001l-11.613-11.613 21.395-21.395Zm28.221 71.013-11.614-11.615.001-.001-1.222-22.616 22.616 1.223h.001-.001l11.614 11.614-21.395 21.395Zm-16.607-11.615-11.614 11.615-21.395-21.395 11.613-11.614h.001l22.616-1.223-1.223 22.616.002.001ZM256.664 314.05l11.615 11.614-.002.002 1.222 22.615-22.615-1.222-.002-.001h.001l-11.613-11.613 21.394-21.395Zm28.222 71.012-11.615-11.614.002-.002-1.223-22.615 22.616 1.222h.002l-.001.001 11.613 11.613-21.394 21.395Zm-16.607-11.614-11.615 11.614-21.394-21.395 11.613-11.613-.001-.001h.002l22.615-1.222-1.222 22.615.002.002Zm16.607-59.398-11.615 11.614.002.002-1.223 22.615 22.616-1.222.002-.001h-.001l11.613-11.613-21.394-21.395Zm42.789 0 11.614 11.614-.001.002 1.222 22.615-22.615-1.222h-.001l-.001-.001h.001l-11.614-11.613 21.395-21.395Zm28.221 71.012-11.614-11.614.002-.002-1.223-22.615 22.615 1.222h.002v.001l11.613 11.613-21.395 21.395Zm-16.607-11.614-11.614 11.614-21.395-21.395 11.614-11.613-.001-.001h.002l22.615-1.222-1.222 22.615.001.002Zm16.607-59.398-11.614 11.614.002.002-1.223 22.615 22.615-1.222h.001l.001-.001 11.613-11.613-21.395-21.395Zm42.79 0 11.614 11.614-.002.002 1.223 22.615-22.615-1.222h-.001l-.001-.001-11.613-11.613 21.395-21.395Zm28.221 71.012-11.614-11.614.001-.002-1.222-22.615 22.615 1.222h.002l-.001.001 11.614 11.613-21.395 21.395ZM410.3 373.448l-11.614 11.614-21.395-21.395 11.613-11.613v-.001h.001l22.616-1.222-1.223 22.615.002.002Zm16.607-59.398-11.614 11.614.001.002-1.222 22.615 22.615-1.222h.001l.001-.001h-.001l11.614-11.613-21.395-21.395Zm42.79 0 11.614 11.614-.001.002 1.222 22.615-22.615-1.222h-.001l-.001-.001h.001l-11.614-11.613 21.395-21.395Zm28.221 71.012-11.614-11.614.002-.002-1.223-22.615 22.616 1.222h.001v.001l11.613 11.613-21.395 21.395Zm-16.607-11.614-11.614 11.614-21.395-21.395 11.614-11.613-.001-.001h.002l22.615-1.222-1.222 22.615.001.002Zm16.607-59.398-11.614 11.614.002.002-1.223 22.615 22.616-1.222.001-.001 11.613-11.613-21.395-21.395Zm42.79 0 11.614 11.614-.002.002 1.223 22.615-22.615-1.222h-.001l-.001-.001-11.613-11.613 21.395-21.395Zm28.221 71.012-11.614-11.614.001-.002-1.222-22.615 22.615 1.222h.002v.001l11.613 11.613-21.395 21.395Zm-16.607-11.614-11.614 11.614-21.395-21.395 11.613-11.613v-.001h.001l22.616-1.222-1.223 22.615.002.002Zm16.607-59.398-11.614 11.614.001.002-1.222 22.615 22.615-1.222h.001l.001-.001 11.613-11.613-21.395-21.395Zm-355.054 71.012-11.614 11.614.001.001-1.222 22.616 22.615-1.223v.001l.001-.001h.001-.001l11.614-11.614-21.395-21.394Zm-28.221 0 11.614 11.614-.002.001 1.223 22.616-22.616-1.223v.001-.001h-.002.001l-11.613-11.614 21.395-21.394Zm28.221 71.012-11.614-11.615.001-.001-1.222-22.615 22.615 1.222h.002l-.001.001 11.614 11.613-21.395 21.395Zm-16.607-11.615-11.614 11.615-21.395-21.395 11.613-11.613-.001-.001h.002l22.616-1.222-1.223 22.615.002.001Z"/><path d="m256.664 385.062 11.615 11.614-.002.001 1.222 22.616-22.615-1.223v.001-.001h-.002.001l-11.613-11.614 21.394-21.394Zm28.221 71.012-11.614-11.615.002-.001-1.223-22.615 22.616 1.222h.002l-.001.001 11.613 11.613-21.395 21.395Zm-16.606-11.615-11.615 11.615-21.394-21.395 11.613-11.613-.001-.001h.002l22.615-1.222-1.222 22.615.002.001Zm16.606-59.397-11.614 11.614.002.001-1.223 22.616 22.616-1.223v.001-.001h.002-.001l11.613-11.614-21.395-21.394Zm42.79 0 11.614 11.614-.001.001 1.222 22.616-22.615-1.223v.001l-.001-.001h-.001.001l-11.614-11.614 21.395-21.394Zm28.221 71.012-11.614-11.615.002-.001-1.223-22.615 22.616 1.222h.001v.001l11.613 11.613-21.395 21.395Zm-16.607-11.615-11.614 11.615-21.395-21.395 11.614-11.613-.001-.001h.002l22.615-1.222-1.222 22.615.001.001Zm16.607-59.397-11.614 11.614.002.001-1.223 22.616 22.616-1.223v.001-.001h.001l11.613-11.614-21.395-21.394Zm42.79 0 11.614 11.614-.001.001 1.222 22.616-22.615-1.223v.001-.001h-.002.001l-11.613-11.614 21.394-21.394Zm28.222 71.012-11.615-11.615.002-.001-1.223-22.615 22.616 1.222h.002l-.001.001 11.613 11.613-21.394 21.395ZM410.3 444.459l-11.614 11.615-21.394-21.395 11.613-11.613-.001-.001h.002l22.615-1.222-1.222 22.615.001.001Zm16.608-59.397-11.615 11.614.002.001-1.223 22.616 22.616-1.223v.001-.001h.002-.001l11.613-11.614-21.394-21.394Zm71.01 0-11.614 11.614.002.001-1.223 22.616 22.616-1.223v.001-.001h.001l11.613-11.614-21.395-21.394Zm-28.221 0 11.614 11.614-.001.001 1.222 22.616-22.615-1.223v.001l-.001-.001h-.001.001l-11.614-11.614 21.395-21.394Zm28.221 71.012-11.614-11.615.002-.001-1.223-22.615 22.616 1.222h.001v.001l11.613 11.613-21.395 21.395Zm-16.607-11.615-11.614 11.615-21.395-21.395 11.614-11.613-.001-.001h.002l22.615-1.222-1.222 22.615.001.001Zm59.397-59.397 11.614 11.614-.002.001 1.223 22.616-22.615-1.223-.001.001v-.001h-.001l-11.613-11.614 21.395-21.394Zm28.221 71.012-11.614-11.615.001-.001-1.222-22.615 22.615 1.222h.002v.001l11.613 11.613-21.395 21.395Zm-16.607-11.615-11.614 11.615-21.395-21.395 11.613-11.613v-.001h.001l22.616-1.222-1.223 22.615.002.001Zm16.607-59.397-11.614 11.614.001.001-1.222 22.616 22.615-1.223.001.001v-.001h.001l11.613-11.614-21.395-21.394Z"/></g></svg>