<svg width="69" height="69" viewBox="0 0 69 69" fill="none" xmlns="http://www.w3.org/2000/svg"><path fill-rule="evenodd" clip-rule="evenodd" d="M20.613.496 31.706 11.59l-.001.002 1.167 21.604-21.603-1.168h-.002L.176 20.932 20.613.496Zm26.954 67.836L36.472 57.237l.002-.002-1.168-21.603 21.604 1.167h.001v.001l11.094 11.094-20.438 20.438Zm-15.86-11.095L20.612 68.332.175 47.894 11.269 36.8h-.001.001l21.604-1.168-1.167 21.603.001.002ZM47.567.496 36.472 11.59l.002.002-1.168 21.604 21.604-1.168h.001l11.094-11.095L47.567.496Z" fill="#09CF82"/></svg>