<svg width="888" height="558" viewBox="0 0 888 558" fill="none" xmlns="http://www.w3.org/2000/svg"><path fill-rule="evenodd" clip-rule="evenodd" d="m230.648-44.153 16.391 16.392-.002.002 1.726 31.919-31.921-1.726h.001l-16.391-16.392 30.196-30.195Zm39.83 100.223-16.392-16.392.002-.002-1.725-31.918 31.918 1.725h.003l-.001.001 16.39 16.39-30.195 30.196Zm-23.439-16.392L230.648 56.07l-30.196-30.196 16.391-16.39h-.001.001l.001-.001h.001l31.918-1.725-1.726 31.918.002.002Zm23.439-83.831-16.392 16.392.002.002-1.725 31.919 31.921-1.726h-.001l16.39-16.392-30.195-30.195Zm60.391 0 16.392 16.391-.002.002 1.725 31.92-31.92-1.726.001-.001-16.391-16.39 30.195-30.196Zm39.83 100.223-16.392-16.392.002-.002-1.725-31.918 31.918 1.725h.003l-.001.001 16.391 16.39-30.196 30.196Zm-23.438-16.392L330.869 56.07l-30.195-30.195 16.391-16.391h-.001.001l.001-.001 31.919-1.725-1.725 31.919.001.001Zm23.438-83.831-16.392 16.391.003.003-1.726 31.919 31.921-1.726-.001-.001 16.391-16.39-30.196-30.196Z" fill="#A259FE"/><path fill-rule="evenodd" clip-rule="evenodd" d="m431.09-44.153 16.392 16.392-.002.002 1.725 31.918-31.919-1.725h-.002l.001-.001-16.391-16.39 30.196-30.196ZM470.92 56.07l-16.392-16.392.002-.002-1.726-31.918 31.919 1.725h.002l16.39 16.392L470.92 56.07Zm-23.438-16.392L431.09 56.07l-30.196-30.195 16.391-16.391h-.001.002v-.001h.001l31.918-1.725-1.725 31.918.002.002Zm23.438-83.831-16.392 16.392.002.002-1.725 31.918 31.918-1.725h.003l-.001-.001 16.39-16.39-30.195-30.196Z" fill="#A259FE"/><path fill-rule="evenodd" clip-rule="evenodd" d="m531.311-44.153 16.391 16.392-.002.002 1.726 31.918-31.918-1.725h-.003l.001-.001-16.391-16.39 30.196-30.196ZM571.14 56.07l-16.392-16.392.003-.002-1.725-31.918 31.917 1.725h.003l-.001.001 16.391 16.39L571.14 56.07Zm-23.438-16.392L531.311 56.07l-30.196-30.195 16.391-16.391h-.001.001l.001-.001 31.919-1.725-1.726 31.918.002.002Zm23.438-83.831-16.392 16.392.003.002-1.725 31.918 31.918-1.725h.002l-.001-.001 16.391-16.39-30.196-30.196Z" fill="#A259FE"/><path fill-rule="evenodd" clip-rule="evenodd" d="m631.531-44.153 16.392 16.391-.002.003 1.725 31.918-31.918-1.725h-.002v-.001l-16.39-16.39 30.195-30.196Zm39.83 100.223-16.392-16.392.002-.002-1.725-31.918 31.918 1.725h.003-.001l16.39 16.391-30.195 30.196Zm-23.438-16.392L631.531 56.07l-30.195-30.196 16.39-16.39v-.001h.002l31.918-1.725-1.725 31.918.002.002Zm23.438-83.831-16.392 16.391.002.003-1.725 31.918 31.918-1.726h.003-.001l16.39-16.39-30.195-30.196Zm60.391 0 16.392 16.391-.002.003 1.725 31.918-31.918-1.725h-.003l.001-.001-16.39-16.39 30.195-30.196Zm39.83 100.223-16.391-16.392.002-.002-1.726-31.918 31.919 1.725h.002-.001l16.391 16.391-30.196 30.196Zm-23.438-16.392L731.752 56.07l-30.195-30.196 16.39-16.39-.001-.001h.003l31.918-1.725-1.725 31.918.002.002Zm23.438-83.831-16.391 16.391.002.002-1.726 31.919 31.918-1.726h.003l16.39-16.39-30.196-30.196Zm60.391 0 16.392 16.391-.002.003 1.725 31.918-31.918-1.726h-.003.001l-16.39-16.39 30.195-30.196ZM871.804 56.07l-16.392-16.392.002-.002-1.725-31.918 31.918 1.725h.003-.001L902 25.875 871.804 56.07Zm-23.439-16.392L831.973 56.07l-30.195-30.195 16.39-16.39-.001-.002h.003l31.918-1.725-1.725 31.918.002.002Zm23.439-83.83-16.392 16.39.002.003-1.725 31.918 31.918-1.725h.003l-.001-.001L902-13.957l-30.196-30.196ZM330.869 56.07l16.392 16.392-.002.002 1.725 31.918-31.918-1.725-.001-.001h-.002.001l-16.39-16.39 30.195-30.196Zm39.83 100.223-16.392-16.392.002-.002-1.725-31.919 31.92 1.726-.001.001 16.391 16.391-30.195 30.195Zm-23.438-16.392-16.392 16.392-30.195-30.195 16.39-16.391-.001-.001h.003l31.918-1.725-1.725 31.918.002.002Zm23.438-83.83-16.392 16.39.002.003-1.725 31.918 31.918-1.725.001-.001h.001l16.39-16.39-30.195-30.196Z" fill="#A259FE"/><path fill-rule="evenodd" clip-rule="evenodd" d="m431.089 56.07 16.392 16.392-.002.002 1.726 31.918-31.918-1.725h-.001l-.001-.001h-.001l-16.39-16.39 30.195-30.196Zm39.83 100.223-16.391-16.392.002-.002-1.726-31.918 31.919 1.725h.002l-.001.001 16.391 16.391-30.196 30.195Zm-23.438-16.392-16.392 16.392-30.195-30.195 16.391-16.391-.001-.001 31.921-1.726-1.726 31.919.002.002Zm23.438-83.83-16.391 16.39.002.003-1.726 31.918 31.918-1.725h.001l.001-.001h.001l16.39-16.39-30.196-30.196Zm60.392-.001 16.391 16.392-.002.002 1.726 31.918-31.918-1.725-.001.001-.001-.001h-.001v-.001l-16.39-16.39 30.196-30.196Zm39.829 100.223-16.392-16.392.002-.002-1.725-31.918 31.921 1.725-.001.001 16.391 16.391-30.196 30.195Zm-23.438-16.392-16.391 16.392-30.196-30.195 16.391-16.391h-.001l.002-.001 31.919-1.725-1.726 31.918.002.002Zm23.438-83.83-16.392 16.391.002.002-1.725 31.918 31.918-1.725.001.001.001-.001h.001l-.001-.001 16.391-16.39L571.14 56.07Z" fill="#A259FE"/><path fill-rule="evenodd" clip-rule="evenodd" d="m631.531 56.07 16.392 16.392-.002.002 1.725 31.918-31.918-1.725-.001.001-.001-.001h-.001l.001-.001-16.391-16.39 30.196-30.196Zm39.829 100.223-16.391-16.392.002-.001-1.726-31.919 31.919 1.725.002.001h-.001l16.391 16.391-30.196 30.195Zm-23.437-16.392-16.392 16.392-30.196-30.195 16.391-16.391-.001-.001 31.921-1.725-1.725 31.918.002.002Zm23.437-83.83-16.391 16.391.002.002-1.726 31.918 31.918-1.725.001.001.001-.001h.001v-.001l16.39-16.39L671.36 56.07Zm60.392-.001 16.391 16.392-.002.002 1.726 31.918-31.918-1.725-.001.001-.001-.001h-.001v-.001l-16.39-16.39 30.196-30.196Zm39.83 100.223-16.392-16.392.002-.001-1.725-31.919 31.918 1.725h.001l.002.001h-.001l16.391 16.391-30.196 30.195Zm-23.439-16.392-16.391 16.392-30.196-30.195 16.391-16.391h-.001l.002-.001 31.919-1.725-1.726 31.918.002.002Zm23.439-83.83-16.392 16.39.002.002-1.725 31.918 31.918-1.725.001.001.001-.001h.001l-.001-.001 16.391-16.39-30.196-30.196Zm60.391-.001 16.392 16.392-.002.002 1.726 31.918-31.919-1.725v.001l-.001-.001h-.001v-.001l-16.39-16.39 30.195-30.196Zm39.831 100.224-16.392-16.392.002-.002-1.725-31.919 31.921 1.725-.001.001L902 126.098l-30.196 30.196Zm-23.439-16.393-16.392 16.392-30.195-30.195 16.391-16.391-.002-.001 31.921-1.725-1.725 31.918.002.002Zm23.439-83.83-16.392 16.391.002.002-1.725 31.918 31.918-1.725v.001l.001-.001h.001v-.001l16.39-16.39-30.195-30.196ZM531.311 156.294l16.392 16.391-.002.002 1.725 31.919-31.918-1.726-.001.001v-.001h-.002l.001-.001-16.39-16.39 30.195-30.195Zm39.83 100.223-16.392-16.392.002-.003-1.725-31.918 31.921 1.725-.002.002 16.391 16.39-30.195 30.196Zm-23.438-16.392-16.392 16.392-30.195-30.196 16.39-16.391-.001-.001 31.921-1.725-1.725 31.919.002.002Zm23.438-83.831-16.392 16.391.002.002-1.725 31.919 31.918-1.725h.002l-.001-.001 16.391-16.391-30.195-30.195Z" fill="#A259FE"/><path fill-rule="evenodd" clip-rule="evenodd" d="m631.532 156.294 16.392 16.391-.002.002 1.725 31.919-31.919-1.725h-.002l.001-.001-16.391-16.391 30.196-30.195Zm39.829 100.223-16.391-16.392.002-.002-1.726-31.919 31.921 1.725-.001.001 16.391 16.391-30.196 30.196Zm-23.437-16.392-16.392 16.392-30.196-30.196 16.391-16.391-.001-.001 31.921-1.725-1.725 31.919.002.002Zm23.437-83.831-16.391 16.391.002.002-1.726 31.919 31.918-1.726.001.001.001-.001h.001l-.001-.001 16.391-16.39-30.196-30.195Z" fill="#A259FE"/><path fill-rule="evenodd" clip-rule="evenodd" d="m731.752 156.293 16.392 16.392-.002.002 1.725 31.919-31.919-1.725h-.002l.001-.001-16.39-16.391 30.195-30.196Zm39.831 100.224-16.392-16.392.002-.002-1.726-31.919 31.921 1.725-.001.002 16.391 16.39-30.195 30.196Zm-23.439-16.392-16.392 16.392-30.195-30.196 16.39-16.39-.001-.002 31.921-1.725-1.725 31.919.002.002Zm23.439-83.832-16.392 16.392.002.002-1.726 31.919 31.919-1.725h.002l-.001-.001 16.391-16.391-30.195-30.196Zm60.391 0 16.392 16.392-.002.002 1.725 31.919-31.918-1.726-.001.001v-.001h-.002l.001-.001-16.391-16.39 30.196-30.196Zm39.831 100.223-16.392-16.391.002-.002-1.726-31.919 31.921 1.725-.001.001L902 226.321l-30.195 30.195Zm-23.439-16.391-16.392 16.392-30.196-30.196 16.391-16.39-.001-.002 31.921-1.725-1.726 31.919.003.002Zm23.439-83.831-16.392 16.392.002.002-1.726 31.918 31.919-1.725h.001l.001-.001L902 186.489l-30.195-30.195ZM431.088 256.517l16.391 16.391-.001.002 1.725 31.918-31.918-1.725-.001.001-.001-.001h-.001l.001-.001-16.391-16.39 30.196-30.195Zm39.83 100.223-16.392-16.391.003-.003-1.725-31.918 31.92 1.725-.001.002 16.391 16.39-30.196 30.195Zm-23.439-16.391-16.391 16.391-30.196-30.195 16.391-16.391-.001-.001 31.921-1.725-1.726 31.919.002.002Zm23.439-83.832-16.392 16.391.003.003-1.725 31.917 31.917-1.725.001.001v-.001h.002l-.001-.001 16.391-16.39-30.196-30.195Z" fill="#A259FE"/><path fill-rule="evenodd" clip-rule="evenodd" d="m531.309 256.517 16.392 16.391-.002.002 1.725 31.918-31.918-1.725v.001l-.001-.001h-.001v-.001l-16.39-16.39 30.195-30.195ZM571.14 356.74l-16.392-16.391.002-.003-1.725-31.918 31.921 1.725-.001.002 16.39 16.39-30.195 30.195Zm-23.439-16.391-16.392 16.391-30.195-30.195 16.391-16.391-.001-.001h.002l31.918-1.725-1.725 31.919.002.002Zm23.439-83.832-16.392 16.391.002.003-1.725 31.917 31.918-1.725v.001l.001-.001h.002l-.001-.001 16.39-16.39-30.195-30.195Zm60.391 0 16.392 16.391-.002.002 1.725 31.918-31.918-1.725-.001.001-.001-.001h-.001l.001-.001-16.391-16.39 30.196-30.195Zm39.83 100.223-16.391-16.391.001-.002-1.725-31.919 31.919 1.725h.002l-.001.001 16.391 16.391-30.196 30.195Zm-23.438-16.391-16.392 16.391-30.196-30.195 16.391-16.391-.001-.001h.002l31.919-1.725-1.725 31.919.002.002Zm23.438-83.832-16.391 16.391.001.002-1.725 31.918 31.918-1.725.001.001.001-.001h.001-.001l16.391-16.391-30.196-30.195Zm60.391 0 16.392 16.391-.002.002 1.725 31.918-31.918-1.725-.001.001v-.001h-.002l.001-.001-16.39-16.39 30.195-30.195Zm39.83 100.223-16.391-16.391.002-.002-1.726-31.919 31.919 1.725h.002l-.001.001 16.391 16.391-30.196 30.195Zm-23.438-16.391-16.392 16.391-30.195-30.195 16.39-16.391-.001-.001h.002l31.919-1.725-1.725 31.919.002.002Zm23.438-83.832-16.391 16.391.002.002-1.726 31.918 31.918-1.725.001.001.001-.001h.001v-.001l16.39-16.39-30.196-30.195Zm60.392 0 16.392 16.392-.002.001 1.725 31.919-31.918-1.725h-.002l-.001-.001h.001l-16.391-16.39 30.196-30.196Zm39.831 100.224-16.392-16.392.002-.002-1.726-31.919 31.919 1.725h.002l-.001.001L902 326.545l-30.195 30.196Zm-23.439-16.393-16.392 16.392-30.196-30.195 16.391-16.391-.001-.002 31.921-1.725-1.726 31.919.003.002Zm23.439-83.831-16.392 16.392.002.002-1.726 31.918 31.919-1.725h.001l.001-.001 16.39-16.39-30.195-30.196ZM130.427 356.74l16.392 16.392-.002.002 1.725 31.919-31.921-1.725.001-.001-16.391-16.391 30.196-30.196Zm39.83 100.223-16.392-16.391.002-.002-1.725-31.918 31.918 1.725.001-.001v.001h.002l-.001.001 16.39 16.39-30.195 30.195Zm-23.438-16.391-16.392 16.391-30.196-30.195 16.391-16.39-.001-.001h.002v-.001l.001.001 31.918-1.725-1.725 31.918.002.002Zm23.438-83.832-16.392 16.392.002.002-1.725 31.919 31.921-1.725-.002-.001 16.391-16.391-30.195-30.196Zm100.221 0-16.392 16.392.002.002-1.725 31.919 31.921-1.725-.001-.001 16.39-16.391-30.195-30.196Zm-39.83 0 16.391 16.392-.002.002 1.726 31.919-31.921-1.725.001-.001-16.391-16.391 30.196-30.196Zm39.83 100.223-16.392-16.392.002-.002-1.725-31.918 31.918 1.726.001-.001v.001h.002-.001l16.39 16.391-30.195 30.195Zm-23.439-16.392-16.391 16.392-30.196-30.195 16.391-16.391h-.001.001l.001-.001.001.001 31.918-1.726-1.726 31.918.002.002Zm83.83-83.831 16.392 16.392-.002.002 1.725 31.919-31.92-1.725.001-.001-16.391-16.391 30.195-30.196Zm39.83 100.224-16.392-16.392.002-.002-1.725-31.918 31.918 1.725h.003l-.001.001 16.391 16.39-30.196 30.196Zm-23.438-16.392-16.392 16.392-30.195-30.196 16.39-16.39v-.001h.002l31.919-1.725-1.725 31.919.001.001Zm23.438-83.832-16.392 16.392.003.002-1.726 31.919 31.921-1.725-.001-.001 16.391-16.391-30.196-30.196Z" fill="#A259FE"/><path fill-rule="evenodd" clip-rule="evenodd" d="m431.09 356.74 16.392 16.392-.002.002 1.725 31.919-31.919-1.725h-.002l.001-.001-16.391-16.391 30.196-30.196Zm39.83 100.223-16.392-16.391.002-.002-1.726-31.918 31.919 1.725.001-.001v.001h.001l16.39 16.391-30.195 30.195Zm-23.438-16.391-16.392 16.391-30.196-30.195 16.391-16.39-.001-.001h.002v-.001l.001.001 31.918-1.725-1.725 31.918.002.002Zm23.438-83.832-16.392 16.392.002.002-1.725 31.919 31.918-1.726.001.001v-.001h.002l-.001-.001 16.39-16.39-30.195-30.196Zm60.391 0 16.392 16.392-.002.002 1.725 31.919-31.918-1.726-.001.001v-.001h-.002l.001-.001-16.39-16.39 30.195-30.196Zm39.83 100.223-16.392-16.391.002-.003-1.725-31.917 31.918 1.725v-.001l.001.001h.002l-.001.001 16.39 16.39-30.195 30.195Zm-23.438-16.391-16.392 16.391-30.195-30.195 16.39-16.39-.001-.001h.002v-.001l.001.001 31.918-1.725-1.725 31.918.002.002Zm23.438-83.832-16.392 16.392.002.003-1.725 31.918 31.918-1.725h.003l-.001-.002 16.39-16.39-30.195-30.196Zm60.39 0 16.392 16.392-.002.002 1.725 31.919-31.918-1.725h-.002l.001-.001-16.391-16.391 30.195-30.196Zm39.83 100.223-16.392-16.391.002-.002-1.725-31.918 31.918 1.725.001-.001v.001h.002l-.001.001 16.39 16.39-30.195 30.195Zm-23.438-16.391-16.392 16.391-30.195-30.195 16.39-16.39v-.001h.001l.001-.001v.001l31.918-1.725-1.725 31.918.002.002Zm23.438-83.832-16.392 16.392.002.002-1.725 31.919 31.918-1.726.001.001v-.001h.002l-.001-.001 16.39-16.39-30.195-30.196Zm60.391 0 16.392 16.392-.002.002 1.725 31.919-31.919-1.725h-.002l.001-.001-16.39-16.391 30.195-30.196Zm39.831 100.223-16.392-16.391.002-.002-1.726-31.918 31.918 1.725.001-.001.001.001h.001v.001l16.39 16.39-30.195 30.195Zm-23.439-16.391-16.392 16.391-30.195-30.195 16.39-16.39-.001-.001h.002v-.001l.001.001 31.918-1.725-1.725 31.918.002.002Zm23.439-83.832-16.392 16.392.002.002-1.726 31.919 31.919-1.726v.001l.001-.001h.001l-.001-.001 16.391-16.39-30.195-30.196Zm60.39 0 16.392 16.392-.002.002 1.725 31.918-31.918-1.725h-.002v-.001l-16.39-16.39 30.195-30.196Zm39.831 100.223-16.392-16.392.002-.001-1.725-31.919 31.918 1.726.001-.001.001.001h.001-.001L902 426.768l-30.196 30.195Zm-23.439-16.391-16.392 16.392-30.195-30.196 16.39-16.39v-.001h.001l.001-.001v.001l31.918-1.725-1.725 31.918.002.002Zm23.439-83.831-16.392 16.391.002.002-1.725 31.919 31.918-1.726.001.001v-.001h.002-.001L902 386.936l-30.196-30.195ZM30.206 456.964l16.392 16.392-.002.002 1.725 31.919-31.92-1.726v-.001L.011 487.159l30.195-30.195Zm39.83 100.223-16.392-16.392.002-.002-1.725-31.918 31.918 1.725v-.001l.001.001h.002v.001l16.389 16.39-30.195 30.196Zm-23.439-16.392-16.392 16.392L.01 526.991l16.39-16.39v-.001l.002-.001v.001l31.918-1.725-1.725 31.918.002.002Zm23.44-83.831-16.393 16.392.002.002-1.725 31.918 31.919-1.725h.002l-.001-.001 16.39-16.391-30.195-30.195Zm60.39 0 16.392 16.392-.002.002 1.725 31.918-31.919-1.725h-.002l.001-.001-16.391-16.391 30.196-30.195Zm39.83 100.223-16.392-16.392.002-.002-1.725-31.918 31.918 1.725h.003l-.001.001 16.39 16.39-30.195 30.196Zm-23.438-16.392-16.392 16.392-30.196-30.196 16.391-16.39-.001-.001h.003l31.918-1.725-1.725 31.918.002.002Zm23.438-83.831-16.392 16.392.002.002-1.725 31.919 31.921-1.726-.001-.001 16.39-16.391-30.195-30.195Zm100.221 0-16.392 16.392.002.002-1.725 31.918 31.918-1.725h.001v-.001h.002-.001l16.39-16.391-30.195-30.195Zm-39.83 0 16.391 16.392-.002.002 1.726 31.918-31.918-1.725h-.001l-.001-.001h-.001.001l-16.391-16.391 30.196-30.195Zm39.83 100.223-16.392-16.392.002-.002-1.725-31.918 31.918 1.725h.003l-.001.001 16.39 16.39-30.195 30.196Zm-23.439-16.392-16.391 16.392-30.196-30.196 16.391-16.39-.001-.001h.001l.001-.001.001.001 31.918-1.725-1.726 31.918.002.002Zm83.83-83.831 16.392 16.392-.002.002 1.725 31.918-31.918-1.725-.001-.001h-.001l-16.39-16.391 30.195-30.195Zm39.83 100.223-16.392-16.392.002-.002-1.725-31.918 31.918 1.725h.003l-.001.001 16.39 16.39-30.195 30.196Zm-23.438-16.392-16.392 16.392-30.195-30.196 16.39-16.39v-.001h.002l31.918-1.725-1.725 31.918.002.002Zm23.438-83.831-16.392 16.392.002.002-1.725 31.918 31.918-1.725.001-.001h.002-.001l16.39-16.391-30.195-30.195Zm60.39 0 16.392 16.392-.002.002 1.726 31.918-31.919-1.725-.001-.001h-.001l-16.39-16.391 30.195-30.195Zm39.83 100.223-16.391-16.392.002-.002-1.726-31.918 31.919 1.725h.002l-.001.001 16.391 16.39-30.196 30.196Zm-23.438-16.392-16.392 16.392-30.195-30.196 16.39-16.39v-.001h.002l31.919-1.725-1.726 31.918.002.002Zm23.438-83.831-16.391 16.392.002.002-1.726 31.918 31.919-1.725.001-.001h.001l16.39-16.391-30.196-30.195Zm60.391 0 16.392 16.392-.002.002 1.725 31.918-31.918-1.725h-.001v-.001h-.002.001l-16.39-16.391 30.195-30.195Zm39.83 100.223-16.392-16.392.002-.002-1.725-31.918 31.918 1.725h.003l-.001.001 16.39 16.39-30.195 30.196Zm-23.438-16.392-16.392 16.392-30.195-30.196 16.39-16.39-.001-.001h.003l31.918-1.725-1.725 31.918.002.002Zm23.438-83.831-16.392 16.392.002.002-1.725 31.918 31.918-1.725.001-.001h.002l-.001-.001 16.39-16.39-30.195-30.195Zm60.391 0 16.392 16.392-.002.002 1.725 31.918-31.918-1.725h-.001v-.001h-.002.001l-16.391-16.391 30.196-30.195Zm39.83 100.223-16.391-16.392.001-.002-1.725-31.918 31.918 1.725h.003l-.001.001 16.391 16.39-30.196 30.196Zm-23.438-16.392-16.392 16.392-30.196-30.196 16.391-16.39-.001-.001h.003l31.918-1.725-1.725 31.918.002.002Zm23.438-83.831-16.391 16.392.001.002-1.725 31.918 31.918-1.725h.001l.001-.001h.001-.001l16.391-16.391-30.196-30.195Zm60.391 0 16.392 16.392-.002.002 1.725 31.918-31.918-1.725h-.001v-.001h-.002.001l-16.39-16.391 30.195-30.195Zm39.831 100.223-16.392-16.392.002-.002-1.726-31.918 31.919 1.725h.002v.001l16.39 16.39-30.195 30.196Zm-23.439-16.392-16.392 16.392-30.195-30.196 16.39-16.39-.001-.001h.003l31.918-1.725-1.725 31.918.002.002Zm23.439-83.831-16.392 16.392.002.002-1.726 31.918 31.919-1.725.001-.001h.001l16.39-16.391-30.195-30.195Zm60.391 0 16.392 16.392-.002.002 1.725 31.918-31.918-1.725h-.001l-.001-.001h-.001.001l-16.391-16.391 30.196-30.195Zm39.83 100.223-16.392-16.391.002-.002-1.725-31.919 31.918 1.726.001-.001v.001h.002-.001L902 526.992l-30.196 30.195Zm-23.438-16.391-16.392 16.391-30.196-30.195 16.391-16.391h-.001.002v-.001l.001.001 31.918-1.726-1.725 31.919.002.002Zm23.438-83.832-16.392 16.392.002.002-1.725 31.918 31.918-1.726.001.001.001-.001h.001-.001L902 487.159l-30.196-30.195Z" fill="#A259FE"/></svg>