<svg xmlns="http://www.w3.org/2000/svg" viewBox="0 0 282.6 82.2" style="enable-background:new 0 0 282.6 82.2" xml:space="preserve"><path d="M197.3 0c3.8 0 9 .7 9.1 4.9 0 1.4-.2 3.4-.4 5.1-1.1 8.3-4.2 28.4-5.9 43.5h-5.5c-1.5-14.2-4.5-34.3-5.8-43.2-.3-1.5-.7-4.1-.7-5.5 0-3.8 5.2-4.8 9.2-4.8zm.1 82.3c-5.2 0-9-3.8-9-9.4 0-5.4 3.8-9.3 9-9.3 5.3 0 9.2 3.9 9.2 9.3 0 5.6-3.9 9.4-9.2 9.4z" style="fill:#a92470"/><path d="M51.6 2.1h5.2c1.7 0 3 1.3 3 3v72.6c0 1.7-1.3 3-3 3h-5.2c-1.7 0-3-1.3-3-3V46.2H11.2v31.6c0 1.7-1.3 3-3 3H3c-1.7 0-3-1.3-3-3V5.1c0-1.7 1.3-3 3-3h5.2c1.7 0 3 1.3 3 3v30.8h37.3V5.1c0-1.6 1.4-3 3.1-3zm63 68.5c1.7 0 3 1.3 3 2.9v4.3c0 1.7-1.3 3-3 3H76.2c-1.6 0-2.9-1.3-2.9-3V5.1c0-1.7 1.3-3 2.9-3h37.4c1.7 0 3 1.3 3 3v4.2c0 1.7-1.3 3-3 3H84.5v22.6H111c1.7 0 3 1.3 3 3v4.2c0 1.7-1.3 3-3 3H84.5v25.4h30.1v.1zm67.9-42.9c0 14.4-10.6 25.7-28.3 25.7h-13.9v24.3c0 1.7-1.2 3-2.9 3h-5.3c-1.7 0-3-1.3-3-3V5.1c0-1.7 1.3-3 3-3h22.1c17.8 0 28.3 11.2 28.3 25.6zm-11.4 0c0-9.2-6.3-15.4-16.9-15.4h-13.9v30.8h13.9c10.6 0 16.9-6.1 16.9-15.4zm102 35.7c1-1.1 2.6-1.3 3.8-.5l4.3 2.8c1.6 1 1.9 3.3.6 4.6-7.1 7.3-17.2 11.8-28.9 11.8-23.3 0-40-17.6-40-40.7 0-23 16.7-40.8 40-40.8 11.7 0 21.8 4.5 28.9 11.9 1.3 1.3 1 3.6-.6 4.6l-4.3 2.8c-1.2.8-2.8.6-3.8-.4-4.8-5.1-11.7-8.3-20.2-8.3-18.4 0-28.6 15-28.6 30.3s10.2 30.2 28.6 30.2c8.5 0 15.4-3.3 20.2-8.3zM134.8 92.6c1.5 0 2.5.3 3.2.6v1.1c-1.1-.5-2-.6-3.2-.6-2.7 0-3.7 2.3-3.7 5.3s1 5.3 3.7 5.3c1.2 0 2.1-.2 3.2-.6v1.1c-.7.3-1.7.6-3.2.6-3.7 0-4.8-2.8-4.8-6.3-.1-3.6 1.1-6.5 4.8-6.5zm9.5 12.7c-2.8 0-3.4-1.8-3.4-4.3s.6-4.3 3.4-4.3 3.5 1.8 3.5 4.3c-.1 2.5-.7 4.3-3.5 4.3zm0-7.5c-2.2 0-2.3 1.4-2.3 3.3s.1 3.3 2.3 3.3c2.1 0 2.3-1.4 2.3-3.3s-.2-3.3-2.3-3.3zm11.4 1.4c0-1.1-.6-1.4-1.6-1.4-1.1 0-1.6.2-2.2.5v6.8h-1.2v-8.2h.6l.2.7c.8-.6 1.6-.9 2.5-.9 2 0 2.8.9 2.8 2.5v5.9h-1.2l.1-5.9zm8.5 6c-.2 0-.5.1-.7.1-1.4 0-2.6-.6-2.6-2.2v-5.2h-1.6v-.5l1.6-.5v-2.2l1.1-.3V97h2.5v.9H162v5.1c0 1 .5 1.4 1.6 1.4h.6v.8zm6.1-8.5c2.8 0 3.1 1.9 3.1 4.3v.5H168c.1 1.4.4 2.7 2.3 2.7 1.2 0 1.9-.1 2.7-.5v1c-.9.4-1.9.5-2.7.5-2.8 0-3.4-1.9-3.4-4.3s.7-4.2 3.4-4.2zm-2.3 3.9h4.3c0-1.5-.1-2.8-2-2.8s-2.2 1.3-2.3 2.8zm13.4-1.4c0-1.1-.6-1.4-1.6-1.4-1.1 0-1.6.2-2.2.5v6.8h-1.2v-8.2h.6l.2.7c.8-.6 1.6-.9 2.5-.9 2 0 2.8.9 2.8 2.5v5.9h-1.2l.1-5.9zm8.5 6c-.2 0-.5.1-.7.1-1.4 0-2.6-.6-2.6-2.2v-5.2H185v-.5l1.6-.5v-2.2l1.2-.3V97h2.5v.9h-2.5v5.1c0 1 .5 1.4 1.6 1.4h.6v.8h-.1zm20.5-2h-.9l-4.2-9 .1 10.9h-1.1V92.8h1.5l4.2 9.1 4.2-9.1h1.5v12.3h-1.1l.1-10.9-4.3 9zm11.4-5.4c-1.1 0-1.8.2-2.5.4v-1c.7-.3 1.7-.4 2.5-.4 2.5 0 3.1 1.1 3.1 2.8v5.6h-.6l-.2-.7c-.7.5-1.7.8-2.5.8-2.2 0-2.9-1.3-2.9-2.6 0-1.4.8-2.4 2.9-2.6l2.2-.1v-.5c-.1-1.2-.5-1.7-2-1.7zm-.3 3.2c-1.2.1-1.7.7-1.7 1.7 0 .7.2 1.6 1.7 1.6.9 0 1.5-.2 2.2-.7v-2.9l-2.2.3zm11-3.1c-.2-.1-.6-.1-1-.1-1.1 0-1.8.2-2.4.5v6.8h-1.2v-8.2h.6l.2.7c.8-.6 1.7-.9 2.6-.9.4 0 .7 0 1 .1v1.1h.2zm5.3 2.4 4 4.8h-1.5l-3.2-4.2-1 1v3.2H235V92.8h1.1v7.8l3.7-3.7h1.5l-3.5 3.4zm9.1-3.6c2.8 0 3.1 1.9 3.1 4.3v.5h-5.4c.1 1.4.4 2.7 2.3 2.7 1.2 0 1.9-.1 2.7-.5v1c-.9.4-1.9.5-2.7.5-2.8 0-3.4-1.9-3.4-4.3s.7-4.2 3.4-4.2zm-2.3 3.9h4.3c0-1.5-.1-2.8-2-2.8s-2.2 1.3-2.3 2.8zm12.7 4.6c-.2 0-.5.1-.7.1-1.4 0-2.6-.6-2.6-2.2v-5.2h-1.7v-.5l1.6-.5v-2.2l1.1-.3V97h2.5v.9H255v5.1c0 1 .5 1.4 1.6 1.4h.6l.1.8zm3.7-11.6c.5 0 .8.4.8.8 0 .5-.4.8-.8.8s-.8-.4-.8-.8.3-.8.8-.8zm-.6 9.9v-6.6h1.1v6.7c0 .6.2.7.7.7v.9c-1.2.1-1.8-.4-1.8-1.7zm9.7-4.3c0-1.1-.6-1.4-1.6-1.4-1.1 0-1.6.2-2.2.5v6.8h-1.2v-8.2h.6l.2.7c.8-.6 1.6-.9 2.5-.9 2 0 2.8.9 2.8 2.5v5.9H270v-5.9h.1zm6 3.6c-.2.2-.3.4-.3.6 0 .4.2.6.6.6l2.8.3c1.5.2 2.3.8 2.3 2.2 0 2-2 2.8-4.3 2.8s-3.7-.7-3.7-2.5c0-1.1.8-1.9 1.7-2.2-.3-.2-.5-.5-.5-1.1 0-.5.3-.8.6-1.1-1-.5-1.3-1.5-1.3-2.7 0-1.7.7-3.1 3.2-3.1.5 0 .9.1 1.3.2h2.8v.6l-1.4.4c.3.5.5 1.2.5 1.9 0 1.7-.7 3.1-3.2 3.1-.4.1-.8.1-1.1 0zm.5 2.2c-1.1.2-2 .8-2 1.8 0 1.2.9 1.6 2.6 1.6 1.6 0 3.2-.4 3.2-1.8 0-.8-.4-1.2-1.4-1.3l-2.4-.3zm2.7-5.2c0-1.1-.2-2.1-2.1-2.1s-2.1 1-2.1 2.1.2 2.1 2.1 2.1 2.1-1 2.1-2.1z" style="fill:#1f1f1e"/></svg>