<svg xmlns="http://www.w3.org/2000/svg" viewBox="0 0 157.9 39.1" style="enable-background:new 0 0 157.9 39.1" xml:space="preserve"><path d="M51.2 37.8h-7.7V.9h15.4c1.4 0 2.8.2 4.1.5 1.3.4 2.5.8 3.7 1.5 1.1.6 2.2 1.4 3.1 2.3.9.9 1.7 1.9 2.4 3s1.2 2.3 1.6 3.5c.4 1.3.5 2.6.5 3.9 0 2-.4 3.9-1.2 5.7-.8 1.8-1.9 3.4-3.3 4.7-1.4 1.3-3 2.4-4.9 3.2-1.9.8-3.8 1.2-6 1.2h-7.7v7.4zm0-29.5v14.8h7.7c1.1 0 2-.2 3-.6.9-.4 1.7-.9 2.4-1.6.7-.7 1.2-1.5 1.6-2.4.4-.9.6-1.9.6-2.9s-.2-2-.6-2.9c-.4-.9-1-1.7-1.6-2.4-.7-.7-1.5-1.2-2.4-1.6-.9-.4-1.9-.6-3-.6h-7.7zm38.1 29.5h-7.7V.9H97c1.4 0 2.8.2 4.1.5 1.3.4 2.5.8 3.7 1.5 1.1.6 2.2 1.4 3.1 2.3.9.9 1.7 1.9 2.4 3s1.2 2.3 1.6 3.5c.4 1.3.5 2.6.5 3.9 0 1.3-.2 2.5-.5 3.7-.3 1.2-.8 2.3-1.4 3.4-.6 1.1-1.4 2.1-2.3 3-.9.9-1.9 1.7-3 2.4l4.3 9.7h-8.2L98 30.4l-8.6.1v7.3zm0-29.5v14.8H97c1.1 0 2-.2 3-.6.9-.4 1.7-.9 2.4-1.6.7-.7 1.2-1.5 1.6-2.4.4-.9.6-1.9.6-2.9s-.2-2-.6-2.9c-.4-.9-1-1.7-1.6-2.4-.7-.7-1.5-1.2-2.4-1.6-.9-.4-1.9-.6-3-.6h-7.7zm68.6 11.2c0 1.7-.2 3.4-.7 5.1-.5 1.6-1.1 3.1-2 4.6-.9 1.4-1.9 2.7-3.1 3.9-1.2 1.2-2.6 2.2-4 3-1.5.8-3 1.5-4.7 1.9-1.7.5-3.5.7-5.3.7-1.8 0-3.6-.2-5.3-.7-1.7-.5-3.3-1.1-4.7-1.9-1.5-.8-2.8-1.8-4-3-1.2-1.2-2.3-2.5-3.1-3.9-.9-1.4-1.5-2.9-2-4.6-.5-1.6-.7-3.3-.7-5.1 0-1.8.2-3.4.7-5.1.5-1.6 1.1-3.1 2-4.6.9-1.4 1.9-2.7 3.1-3.9 1.2-1.2 2.6-2.2 4-3 1.5-.8 3.1-1.5 4.7-1.9 1.7-.5 3.4-.7 5.3-.7 1.8 0 3.6.2 5.3.7 1.7.5 3.3 1.1 4.7 1.9 1.5.8 2.8 1.8 4 3 1.2 1.2 2.2 2.5 3.1 3.9.9 1.4 1.5 2.9 2 4.6.5 1.7.7 3.4.7 5.1zm-7.6 0c0-1.6-.3-3.1-1-4.6-.6-1.4-1.5-2.7-2.6-3.7-1.1-1.1-2.4-1.9-3.9-2.5-1.5-.6-3.1-.9-4.7-.9-1.7 0-3.3.3-4.8.9-1.5.6-2.8 1.5-3.9 2.5-1.1 1.1-2 2.3-2.6 3.7-.6 1.4-1 3-1 4.6 0 1.6.3 3.1 1 4.5.6 1.4 1.5 2.7 2.6 3.7 1.1 1.1 2.4 1.9 3.9 2.5 1.5.6 3.1.9 4.8.9 1.7 0 3.3-.3 4.7-.9 1.5-.6 2.8-1.5 3.9-2.5 1.1-1.1 2-2.3 2.6-3.7.7-1.4 1-2.9 1-4.5z" style="fill:#0e2e3e"/><path d="M27.2 32.8c-8.4 1.5-16.4-4.1-17.9-12.5S13.4 3.9 21.8 2.4c1.3-.2 2.6-.3 3.8-.2-3-1.1-6.3-1.5-9.7-.9C5.7 3.1-1 12.8.7 23s11.5 16.9 21.6 15.2c6.1-1.1 11-5 13.5-10.2-2.1 2.4-5.1 4.2-8.6 4.8z" style="fill-rule:evenodd;clip-rule:evenodd;fill:#0e2e3e"/><path d="M23.1 5.4c-4.2.7-7.5 3.6-9.1 7.2 1.5-1.8 3.6-3.1 6-3.5 5.5-1 10.8 2.7 11.7 8.2 1 5.5-2.7 10.8-8.2 11.7-.6.1-1.3.2-1.9.2 1.8.6 3.8.7 5.7.4 6.7-1.2 11.1-7.5 10-14.2-1.1-6.8-7.5-11.2-14.2-10z" style="fill-rule:evenodd;clip-rule:evenodd;fill:#5791c1"/></svg>