<svg xmlns="http://www.w3.org/2000/svg" version="1.1" id="Capa_1" x="0" y="0" viewBox="0 0 293.4 80" style="enable-background:new 0 0 293.4 80" xml:space="preserve"><style>.st0{fill:#37355f}</style><path class="st0" d="M80.1 18h9v14.6c.5-.2.9-.3 1.3-.4 3.5-1.1 7.1-1.3 10.6-.4 4.9 1.3 8.2 4.4 9.7 9.3 1.4 4.5 1.4 9-.7 13.3-2.3 4.9-6.5 7.4-11.6 8.4-5.3 1.1-10.6.4-15.7-1.1-.8-.2-1.7-.6-2.5-.8-.1-14.2-.1-28.5-.1-42.9zm9 37.2c2.6.6 5.2.9 7.8.3 3-.7 4.8-2.5 5.5-5.5.4-1.6.4-3.2.1-4.9-.6-3.3-2.8-5.5-6.2-6-2.2-.3-4.4 0-6.6.6-.6.2-.8.4-.8 1v13.8c.2.2.2.4.2.7zm156.1 7.5h-8.9V45.3c0-.7 0-1.5-.1-2.2-.6-3.1-2.8-4.6-5.9-4.1-3.1.6-5 2.9-5 6.4v17.3h-8.8V45.3c0-.7 0-1.4-.1-2.1-.5-3.1-2.7-4.6-5.8-4.2-3.1.5-5 2.7-5.1 6.1v17.6h-8.9V43.1c0-.6 0-1.2-.1-1.8-.2-1.3-.8-1.9-2.2-2-.5-.1-1.1 0-1.7 0v-6.4c0-.7.1-1.1.9-1.1 1.5 0 3-.3 4.5-.2 3.3.2 4.9 1.4 6.4 4.7 2.4-3.3 5.7-4.9 9.7-5 4.1-.1 7.3 1.5 9.6 5.1.3-.3.5-.6.8-.9 3.7-4.1 10.4-5.5 15.1-3 3.2 1.7 4.8 4.5 5.5 7.9.2 1.2.3 2.4.3 3.6v18.1c-.2.2-.2.4-.2.6zm-111.9.7c-3.8 0-7.4-.9-10.5-3.1-4.6-3.2-6.6-7.8-6.5-13.3.1-8.3 5.5-14.3 13.7-15.5 3.5-.5 7-.3 10.3 1 6.4 2.4 10.1 7.9 10 14.8-.1 8.5-5.8 14.9-14.3 15.8-.9.2-1.8.2-2.7.3zm8.2-15.5c0-2.3-.3-3.8-1-5.1-2.5-4.7-9-4.8-12.2-2.4-2.5 1.8-3.3 4.4-3.2 7.3.2 6.6 7.1 10.3 12.7 6.8 2.7-1.6 3.6-4.2 3.7-6.6zm30.4 15.5c-3.8 0-7.3-.9-10.4-3.1-4.5-3.2-6.5-7.6-6.6-13-.1-8.3 5.4-14.6 13.6-15.8 3.5-.5 7-.3 10.3.9 6.4 2.3 10.1 7.8 10.1 14.7 0 8.5-5.8 15-14.3 15.9-.9.3-1.8.3-2.7.4zm8.2-15.5c0-2.3-.3-3.8-1-5-2.4-4.6-8.9-4.8-12.1-2.5-2.5 1.8-3.4 4.4-3.2 7.4.4 8 8.1 9.4 12.4 7 2.9-1.7 3.9-4.4 3.9-6.9zm93.1-8.8c-2-.2-3.8-.4-5.7-.6V32h5.2c.5 0 .7-.2.7-.7.2-2.7.5-5.3.7-8 0-.6.2-.8.8-.8h7.1v8.7c0 .6.2.7.7.7h9.2v7.2h-9.8c0 .2-.1.3-.1.4 0 3.9 0 7.7.1 11.6 0 .3.1.7.1 1 .5 2.2 1.8 3.4 4 3.4 1.5 0 3-.3 4.5-.5.3 0 .6-.1.9-.2.5 2.3 1.1 4.6 1.6 7-1.6.4-3.2.8-4.8 1.1-2.5.4-5 .5-7.4-.1-3.9-.9-6.3-3.4-7.2-7.2-.5-1.9-.6-4-.7-6-.1-3.2 0-6.4 0-9.6.1-.3.1-.6.1-.9zm-11.1 23.6h-8.8V32h8.8v30.7z"/><circle class="st0" cx="257.7" cy="22.1" r="5.4"/><linearGradient id="SVGID_1_" gradientUnits="userSpaceOnUse" x1="0" y1="40.02" x2="61.219" y2="40.02"><stop offset="0" style="stop-color:#5e2cf4"/><stop offset="1" style="stop-color:#ff454d"/></linearGradient><path d="M35.6 80H16.7C7.5 80 0 72.5 0 63.3s7.5-16.7 16.7-16.7h18.9c6 0 11.4-2.5 15.2-6.5-3.8-4-9.2-6.5-15.2-6.5H16.7C7.5 33.5 0 26 0 16.7S7.5 0 16.7 0h18.9c14.1 0 25.6 11.5 25.6 25.6 0 5.3-1.6 10.3-4.5 14.4 2.8 4.1 4.5 9.1 4.5 14.4C61.2 68.6 49.7 80 35.6 80zM16.7 51.2c-6.7 0-12.1 5.4-12.1 12.1S10 75.4 16.7 75.4h18.9c11.5 0 20.9-9.4 20.9-20.9 0-3.9-1.1-7.5-2.9-10.7-4.6 4.6-11 7.4-18 7.4H16.7zm0-46.5C10 4.7 4.6 10.1 4.6 16.8S10 28.9 16.7 28.9h18.9c7 0 13.4 2.8 18 7.4 1.9-3.1 2.9-6.8 2.9-10.7 0-11.5-9.4-20.9-20.9-20.9H16.7z" style="fill:url(#SVGID_1_)"/></svg>