<svg xmlns="http://www.w3.org/2000/svg" version="1.1" id="Capa_1" x="0" y="0" viewBox="0 0 749.6 172" style="enable-background:new 0 0 749.6 172" xml:space="preserve"><style>.st0{fill:#7c2ff0}</style><path class="st0" d="M164 33.9H94.6v24.5h69.5v40.1l24.5 6.2V58.4c0-13.5-11.1-24.5-24.6-24.5zm-111.6 92V96.8H27.9v29.1c0 13.5 11 24.5 24.5 24.5h93.2l-6.9-24.5H52.4zM8.2 72.4c1.2-5.1 6.3-8.3 11.4-7.1.6.1 1.1.3 1.6.5l28.6 12 .1.1c1.9.7 2.9 2.7 2.5 4.6-.4 1.9-2.3 3.3-4.2 3.1h-.1L17 84c-.6 0-1.1-.1-1.7-.2-5.1-1.3-8.3-6.3-7.1-11.4zM57.5 68l-.1-.1-24.2-19.4c-.4-.4-.9-.8-1.2-1.2-3.5-3.9-3.1-9.9.9-13.4 3.9-3.5 9.9-3.1 13.4.9.4.4.7.9 1 1.4l16.2 26.5.1.1c1.1 1.7.8 3.9-.7 5.2-1.7 1.2-3.9 1.3-5.4 0zm23.3-9c-1.9.4-3.9-.7-4.6-2.6v-.1L64.9 27.4c-.2-.5-.4-1.1-.5-1.6-1-5.1 2.3-10.1 7.4-11.2C77 13.5 82 16.9 83 22c.1.6.2 1.1.2 1.7l.8 31v.1c.1 2-1.3 3.8-3.2 4.2z"/><path d="M143.8 105.9c-.3-1 .6-2 1.7-1.7l31 7.9 14.5 3.7 8.3 2.1c1 .3 1.4 1.6.7 2.3l-12.6 13 17.4 17c.6.5.6 1.4 0 2L193.2 164c-.5.6-1.4.6-2 0l-17.4-17-12.6 13c-.8.8-2.1.4-2.4-.6l-3.1-11-4.1-14.6-7.8-27.9z" style="fill:#4fe84b"/><path class="st0" d="M277.5 110.3c0 15.9-12.3 28.6-27.6 28.6-6.6 0-11.5-2.5-15.1-6.2l-1.9 5h-13.4V60.2h17.4v25.9c3.3-2.6 7.6-4.3 13-4.3 15.2 0 27.6 12.7 27.6 28.5zm-17.3.2c0-7.1-5.1-12.4-12-12.4-6.8 0-12 5.3-12 12.4 0 7.2 5.3 12.2 12.1 12.2s11.9-5.1 11.9-12.2zM322.6 83H340v54.7h-13.4l-2.5-6.6c-4.2 4.6-11.7 7.7-17.8 7.7-12.8 0-21.6-8.8-21.6-23.8V83h17.4v28.9c0 7.1 3.8 11 9.4 11 6.2 0 11-4.9 11-10.2V83zm37.9 73 7.6-18.5L346.4 83h19l11.2 34.3L387.9 83h19.3l-28.1 73h-18.6zm111-45.7c0 15.9-12.3 28.6-27.6 28.6-6.6 0-11.5-2.5-15.1-6.2l-1.9 5h-13.4V60.2H431v25.9c3.3-2.6 7.6-4.3 13-4.3 15.1 0 27.5 12.7 27.5 28.5zm-17.3.2c0-7.1-5.1-12.4-12-12.4-6.8 0-12 5.3-12 12.4 0 7.2 5.3 12.2 12.1 12.2s11.9-5.1 11.9-12.2zM516.6 83H534v54.7h-13.4l-2.5-6.6c-4.2 4.6-11.7 7.7-17.8 7.7-12.8 0-21.6-8.8-21.6-23.8V83h17.4v28.9c0 7.1 3.8 11 9.4 11 6.2 0 11-4.9 11-10.2V83zm30.8 54.7V98.9h-6.6V83h6.6V70.3l17.5-4.3v17h10.6v15.9h-10.6v38.8h-17.5zm38.8 0V98.9h-6.6V83h6.6V70.3l17.5-4.3v17h10.6v15.9h-10.6v38.8h-17.5zm31-27c0-16 12.8-28.8 29.7-28.8 16.8 0 29.7 12.8 29.7 28.8 0 15.8-12.9 28.5-29.8 28.5-16.8 0-29.6-12.7-29.6-28.5zm42-.1c0-7.2-5.4-12.4-12.3-12.4-7 0-12.3 5.2-12.3 12.4 0 7 5.4 12.3 12.3 12.3 6.9-.1 12.3-5.3 12.3-12.3zm81.4-5v32h-17.4v-28.9c0-7.1-3.8-11-9.4-11-6.2 0-11 4.9-11 10.2v29.7h-17.4V83h13.4l2.5 6.6c4.2-4.6 11.7-7.7 17.8-7.7 12.6-.1 21.5 8.7 21.5 23.7z"/></svg>