<svg xmlns="http://www.w3.org/2000/svg" version="1.1" id="Capa_1" x="0" y="0" viewBox="0 0 757.8 76.5" style="enable-background:new 0 0 757.8 76.5" xml:space="preserve"><style>.st0{fill:#040404}</style><path class="st0" d="M0 38.4v-.2C0 17.3 15.6 0 37.4 0c11.4 0 18.9 3.4 25.4 8.8 1.9 1.5 2.1 4.3.4 6.1-1.5 1.6-4 1.8-5.7.4-5.5-4.6-11.8-7.6-20.3-7.6C20.9 7.7 8.7 21 8.7 38v.2c0 17.1 12.3 30.5 28.6 30.5 8.9 0 15.1-3 21.2-8.3 1.5-1.3 3.8-1.2 5.2.2 1.6 1.6 1.5 4.2-.2 5.7-6.9 6.2-14.8 10.1-26.5 10.1-21.3 0-37-16.8-37-38zM210.9 1.3h31.8c9.1 0 16.4 2.7 21 7.4 3.6 3.6 5.7 8.8 5.7 14.6v.2c0 12.2-8.4 19.4-20.1 21.5L267 68.6c2 2.7.1 6.5-3.3 6.5-1.3 0-2.5-.6-3.3-1.6l-20.2-27.1h-21.1v24.5c0 2.3-1.9 4.2-4.2 4.2-2.3 0-4.2-1.9-4.2-4.2l.2-69.6zm31 37.7c11.1 0 19-5.7 19-15.2v-.2c0-9.1-7-14.6-18.9-14.6h-22.8v30h22.7zm66.3-37.7h49.6c2.1 0 3.8 1.7 3.8 3.8 0 2.1-1.7 3.8-3.8 3.8h-41.3v25.2H353c2.1 0 3.8 1.7 3.8 3.8 0 2.1-1.7 3.8-3.8 3.8h-36.5v25.8h41.8c2.1 0 3.8 1.7 3.8 3.8 0 2.1-1.7 3.8-3.8 3.8h-50.1V1.3zm91.8 0h49.2c2.1 0 3.9 1.7 3.9 3.9 0 2.1-1.7 3.9-3.9 3.9h-40.9v26.4h36.2c2.1 0 3.8 1.7 3.8 3.8 0 2.1-1.7 3.8-3.8 3.8h-36.2v28c0 2.3-1.9 4.2-4.2 4.2-2.3 0-4.2-1.9-4.2-4.2l.1-69.8zm204.8.1c1.6 0 3.1.7 4.1 2l44.9 57.2V5.5c0-2.2 1.8-4.1 4.1-4.1 2.2 0 4.1 1.8 4.1 4.1v65.3c0 2.5-2 4.5-4.5 4.5-1.4 0-2.7-.6-3.5-1.7l-46.3-58.9v56.5c0 2.2-1.8 4.1-4.1 4.1-2.2 0-4.1-1.8-4.1-4.1V6.7c0-3 2.4-5.3 5.3-5.3zm99.1 0h49.6c2.1 0 3.8 1.7 3.8 3.8 0 2.1-1.7 3.8-3.8 3.8h-41.3v25.2h36.5c2.1 0 3.8 1.7 3.8 3.8 0 2.1-1.7 3.8-3.8 3.8h-36.5v25.8H754c2.1 0 3.8 1.7 3.8 3.8 0 2.1-1.7 3.8-3.8 3.8h-50.1V1.4z"/><path d="M96.7 38.5v-.2C96.7 17.9 112 .1 134.5.1s37.6 17.6 37.6 38v.2c0 20.4-15.3 38.2-37.8 38.2s-37.6-17.6-37.6-38z" style="fill:#1f79b5"/><path class="st0" d="M485.4 38.4v-.2c0-20.4 15.3-38.2 37.8-38.2 22.5 0 37.6 17.6 37.6 38v.2c0 20.4-15.3 38.2-37.8 38.2s-37.6-17.6-37.6-38zm66.7 0v-.2c0-16.8-12.2-30.5-29.1-30.5-16.9 0-29 13.5-29 30.3v.2c0 16.8 12.2 30.5 29.1 30.5 16.9 0 29-13.5 29-30.3z"/></svg>