<svg xmlns="http://www.w3.org/2000/svg" width="1233" height="283" viewBox="0 0 1233 283" fill="none"><path d="M203.816 167.704c14.469 0 26.198-11.732 26.198-26.204 0-14.472-11.729-26.204-26.198-26.204-14.468 0-26.197 11.732-26.197 26.204 0 14.472 11.729 26.204 26.197 26.204Z" fill="#DF570B"/><path fill-rule="evenodd" clip-rule="evenodd" d="M136.534 283C214.663 283 278 219.648 278 141.5S214.663 0 136.534 0C71.744 0 17.128 43.565.365 103.005c-1.78 6.316 3.186 12.291 9.747 12.291h.359c4.913 0 9.12-3.434 10.518-8.146 13.236-44.612 51.595-78.419 98.675-85.015 12.633-1.77 10.702 17.14 10.702 31.378v81.893h-.09v90.486c0 16.89 2.283 36.964-12.181 34.743-46.362-7.12-84.017-40.669-97.106-84.785-1.398-4.712-5.605-8.146-10.518-8.146h-.36c-6.56 0-11.527 5.975-9.746 12.291C17.128 239.436 71.745 283 136.534 283Zm27.576-24.133c53.265-12.473 92.932-60.287 92.932-117.367 0-58.251-41.311-106.852-96.228-118.09-10.441-2.136-8.682 16.696-8.682 30.03v90.485h-.089v81.893c.089 29.406 1.736 34.817 12.067 33.049Z" fill="#DF570B"/><path d="M78.068 167.704c14.469 0 26.198-11.732 26.198-26.204 0-14.472-11.73-26.204-26.198-26.204S51.871 127.028 51.871 141.5c0 14.472 11.729 26.204 26.197 26.204Z" fill="#DF570B"/><path d="M356 255c-5.523 0-10-4.477-10-10V43c0-5.523 4.477-10 10-10h62c17.8 0 33.3 3.2 46.5 9.6 13.2 6.2 24.2 14.6 33 25.2s15.4 22.5 19.8 35.7c4.4 13.2 6.6 26.7 6.6 40.5s-2.2 27.3-6.6 40.5c-4.4 13.2-11 25.1-19.8 35.7-8.8 10.6-19.8 19.1-33 25.5-13.2 6.2-28.7 9.3-46.5 9.3h-62Zm60.8-196.2h-31.4c-5.523 0-10 4.477-10 10v150.4c0 5.523 4.477 10 10 10h31.4c13 0 24.3-2.4 33.9-7.2 9.8-4.8 17.9-11.2 24.3-19.2 6.6-8.2 11.5-17.4 14.7-27.6 3.2-10.2 4.8-20.6 4.8-31.2 0-10.6-1.6-21-4.8-31.2-3.2-10.2-8.1-19.3-14.7-27.3-6.4-8.2-14.5-14.7-24.3-19.5-9.6-4.8-20.9-7.2-33.9-7.2ZM633.562 258c-13 0-24.3-2.3-33.9-6.9-9.4-4.8-17.2-11.2-23.4-19.2-6-8-10.5-16.8-13.5-26.4-3-9.8-4.5-19.8-4.5-30 0-10 1.4-19.9 4.2-29.7 3-9.8 7.5-18.7 13.5-26.7 6.2-8 13.9-14.3 23.1-18.9 9.4-4.8 20.5-7.2 33.3-7.2 13.6 0 25.6 3.1 36 9.3 10.4 6.2 18.6 15.4 24.6 27.6 6 12.2 9 27.5 9 45.9a8.4 8.4 0 0 1-8.4 8.4h-95.811c-5.785 0-10.441 4.923-9.225 10.579a65.49 65.49 0 0 0 4.836 14.321c3.8 7.4 9.1 13.4 15.9 18 6.8 4.4 14.9 6.6 24.3 6.6 8.2 0 14.8-1.3 19.8-3.9 5.2-2.8 9.3-6 12.3-9.6 3-3.6 5-6.7 6-9.3a6.93 6.93 0 0 1 6.369-4.2h16.526c2.817 0 4.859 2.686 4.105 5.4-1 3.4-2.8 7.6-5.4 12.6-2.6 5-6.4 10.1-11.4 15.3-5 5-11.4 9.3-19.2 12.9-7.8 3.4-17.5 5.1-29.1 5.1Zm-44.214-106.891c-1.558 5.72 3.168 10.891 9.096 10.891h65.226c5.673 0 10.327-4.748 9.284-10.325-1.082-5.79-2.913-10.748-5.492-14.875-4-6.6-9.1-11.5-15.3-14.7-6.2-3.2-12.8-4.8-19.8-4.8-12.6 0-22.9 4.1-30.9 12.3-5.732 5.732-9.77 12.902-12.114 21.509ZM753.865 255c-5.528 0-10.008-4.485-10-10.013l.273-208c.008-5.518 4.483-9.987 10-9.987h8.214c5.522 0 10 4.477 10 10v208c0 5.523-4.478 10-10 10h-8.487Zm92.051 0c-5.522 0-10-4.477-10-10V129.4c0-5.523-4.477-10-10-10h-6.1c-5.522 0-10-4.477-10-10V106c0-5.523 4.478-10 10-10h6.1c5.523 0 10-4.477 10-10v-9.5c0-8.4 1.5-16.6 4.5-24.6 3-8.2 8-14.9 15-20.1 7-5.2 16.5-7.8 28.5-7.8 5.8 0 10.4.5 13.8 1.5 3.156.701 5.4 3.5 5.4 6.732v12.084a4.053 4.053 0 0 1-4.8 3.984c-3-.8-6.5-1.2-10.5-1.2-9.2 0-15.4 2.8-18.6 8.4-3.2 5.6-4.8 12.6-4.8 21V86c0 5.523 4.478 10 10 10h16.9c5.523 0 10 4.477 10 10v3.4c0 5.523-4.477 10-10 10h-16.9c-5.522 0-10 4.477-10 10V245c0 5.523-4.477 10-10 10h-8.5Zm153.341 3c-17 0-31.3-3.9-42.9-11.7-11.6-8-20.4-18.3-26.4-30.9-6-12.6-9-25.9-9-39.9 0-14.2 3-27.5 9-39.9 6-12.6 14.8-22.8 26.4-30.6 11.6-8 25.9-12 42.9-12 17.003 0 31.303 4 42.903 12 11.6 7.8 20.4 18 26.4 30.6 6 12.4 9 25.7 9 39.9 0 14-3 27.3-9 39.9-6 12.6-14.8 22.9-26.4 30.9-11.6 7.8-25.9 11.7-42.903 11.7Zm0-24.9c10.803 0 19.803-2.7 27.003-8.1 7.4-5.6 12.9-12.8 16.5-21.6 3.8-8.8 5.7-18.1 5.7-27.9 0-10-1.9-19.3-5.7-27.9-3.6-8.8-9.1-15.9-16.5-21.3-7.2-5.6-16.2-8.4-27.003-8.4-10.6 0-19.6 2.8-27 8.4-7.4 5.4-13 12.5-16.8 21.3-3.6 8.6-5.4 17.9-5.4 27.9 0 9.8 1.8 19.1 5.4 27.9 3.8 8.8 9.4 16 16.8 21.6 7.4 5.4 16.4 8.1 27 8.1ZM1174.64 258c-12.2 0-22.3-1.7-30.3-5.1-7.8-3.4-14-7.6-18.6-12.6-4.6-5.2-8-10.3-10.2-15.3-2.2-5.2-3.6-9.5-4.2-12.9a4.341 4.341 0 0 1 4.28-5.1h19.32c2.51 0 4.67 1.75 5.2 4.2.8 2.6 2.3 5.7 4.5 9.3 2.4 3.4 6 6.5 10.8 9.3 5 2.6 11.6 3.9 19.8 3.9 9.4 0 16.7-2.2 21.9-6.6 5.2-4.6 7.8-10.2 7.8-16.8 0-5.8-2.1-10.4-6.3-13.8-4-3.4-9.8-6-17.4-7.8l-21.6-5.1c-8-2-15.5-4.7-22.5-8.1-7-3.4-12.7-8-17.1-13.8-4.2-6-6.3-13.4-6.3-22.2 0-13.6 5.1-24.7 15.3-33.3 10.2-8.8 23.5-13.2 39.9-13.2 11 0 20.1 1.6 27.3 4.8 7.2 3 12.9 6.8 17.1 11.4 4.4 4.6 7.6 9.2 9.6 13.8 2.2 4.6 3.6 8.5 4.2 11.7.46 2.328-1.32 4.5-3.69 4.5h-19.59a4.476 4.476 0 0 1-4.32-3.3c-.6-2.4-2-5-4.2-7.8-2-3-5.1-5.6-9.3-7.8-4.2-2.4-9.8-3.6-16.8-3.6-9.6 0-16.6 2.2-21 6.6-4.4 4.4-6.6 9.2-6.6 14.4 0 5 2 9.1 6 12.3 4.2 3 9.6 5.3 16.2 6.9l21.9 5.1c13.6 3.2 24.8 8.5 33.6 15.9 9 7.2 13.5 17.6 13.5 31.2 0 8.8-2.3 17-6.9 24.6-4.6 7.4-11.2 13.3-19.8 17.7-8.6 4.4-19.1 6.6-31.5 6.6Z" fill="#3C3C3C"/></svg>