<svg xmlns="http://www.w3.org/2000/svg" width="99" height="43" viewBox="0 0 99 43" fill="none"><path d="M4 38h90.473V4H4v34Zm87.644-2.892H6.791V6.824h84.853v28.284Z" fill="#2B3E51"/><path d="M82.507 16.272a8.13 8.13 0 0 0-6.604-3.397 8.934 8.934 0 0 0-2.902.498 7.573 7.573 0 0 0-4.686 4.717 8.4 8.4 0 0 0 1.01 7.669 8.098 8.098 0 0 0 6.582 3.36 9.079 9.079 0 0 0 2.874-.48 7.563 7.563 0 0 0 4.732-4.678 8.405 8.405 0 0 0-1.007-7.689Zm-.992 4.75a5.618 5.618 0 0 1-2.495 4.655 5.595 5.595 0 0 1-8.598-3.569 5.618 5.618 0 0 1 1.523-5.058 5.522 5.522 0 0 1 7.905 0 5.61 5.61 0 0 1 1.665 3.973Zm-44.321-7.856v9.698c0 2.213-1.469 3.758-3.574 3.758-2.106 0-3.53-1.566-3.53-3.805v-9.651h-2.61v9.809a6.176 6.176 0 0 0 3.803 5.703 6.157 6.157 0 0 0 6.718-1.338 6.18 6.18 0 0 0 1.805-4.365v-9.809h-2.611ZM61.06 21.38v-.145h-5.138v2.393h2.592v2.232h-.02a7.549 7.549 0 0 1-3.158.694 5.596 5.596 0 0 1-3.865-1.694 5.615 5.615 0 0 1 0-7.83 5.596 5.596 0 0 1 3.865-1.693c1.357.04 2.658.56 3.668 1.47l.08.068.36.3.295-.311.042-.043c.165-.18.334-.353.497-.525l.188-.196.747-.767-.586-.468a8.117 8.117 0 0 0-12.177 1.728 8.147 8.147 0 0 0-1.29 4.409 8.095 8.095 0 0 0 2.37 5.743 8.07 8.07 0 0 0 5.74 2.359c1.953-.008 3.87-.52 5.568-1.484a.68.68 0 0 0 .232-.472v-2.684c-.007-1.005-.03-2.056-.01-3.084Zm-44.726-8.214v6.246l2.589-1.56v-4.686h-2.589Zm0 15.604h2.589v-9.586l-2.589 1.564v8.022Z" fill="#2B3E51"/></svg>