<svg xmlns="http://www.w3.org/2000/svg" viewBox="0 0 719.8 185.3" style="enable-background:new 0 0 719.8 185.3" xml:space="preserve"><path style="fill:#082547" d="M35.7 0h684.1v185.3H35.7z"/><path style="fill:#ffa900" d="M0 .4h36.1v185.3H0z"/><path d="M89.6 148.5c-11.1 0-20.1-9-20.1-20v-6.6h16.7v4.2c0 2.3.4 3.8 1.2 4.6.8.8 2.3 1.2 4.6 1.2h66.5c2.3 0 3.8-.4 4.5-1.2s1.1-2.3 1.1-4.6v-19.2c0-2.4-.4-3.9-1.1-4.6s-2.2-1.1-4.5-1.1H89.6c-11.1 0-20.1-9-20.1-20v-24c0-11.1 9-20.1 20-20.1h71.3c11.1 0 20.1 8.9 20.1 20v6.6H164v-4.1c0-2.3-.4-3.8-1.1-4.6s-2.2-1.2-4.5-1.2H92c-2.3 0-3.8.4-4.6 1.2-.8.8-1.2 2.3-1.2 4.6v19.2c0 2.4.4 3.9 1.2 4.6.8.7 2.3 1.1 4.6 1.1h68.8c11.1 0 20.1 8.9 20.1 20v23.9c0 11.1-8.9 20.1-20 20.1H89.6zm108.3 0V57.2c0-11.1 9-20.1 20-20.1H289c5.4-.1 10.5 2.1 14.3 5.9 3.9 3.7 6.1 8.8 6 14.2v91.3h-16.9v-39h-77.8v39h-16.7zm16.7-55.7h77.8V59.5c0-2.3-.4-3.8-1.1-4.6s-2.3-1.2-4.6-1.2h-66.4c-2.3 0-3.8.4-4.6 1.2s-1.2 2.3-1.2 4.6l.1 33.3zm112.8 55.7V37.1H414c11.1 0 20.1 9 20.1 20v22.7c0 1.3-.1 2.7-.4 4-.2 1.3-.7 2.5-1.3 3.7 1.9 2.5 3.4 5.3 4.7 8.1 1.1 2.4 1.6 5 1.6 7.7v24.9c.1 5.4-2.1 10.5-6 14.2-3.8 3.8-8.9 6-14.3 5.9l-91 .2zm22.4-65.1h61.9c2.3 0 3.8-.4 4.5-1.2s1.1-2.3 1.1-4.6V59.5c0-2.3-.4-3.8-1.1-4.6s-2.2-1.2-4.5-1.2h-61.9c-2.3 0-3.8.4-4.6 1.2s-1.2 2.3-1.2 4.6v18.1c0 2.3.4 3.8 1.2 4.6s2.4 1.2 4.6 1.2zm0 48.4h66.4c2.4 0 3.9-.4 4.6-1.2s1.1-2.3 1.1-4.6v-20.3c0-2.3-.4-3.8-1.1-4.6-.7-.8-2.3-1.2-4.6-1.2h-66.4c-2.3 0-3.8.4-4.6 1.2s-1.2 2.3-1.2 4.6V126c0 2.3.4 3.8 1.2 4.6s2.4 1.2 4.6 1.2zm146.4 16.7v-41.8l-51.4-69.6h19.6l40.1 50.6 39.9-50.6h19.8l-51.4 69.6v41.8h-16.6zm79.5 0V37.1h16.9v47.3h30.8L663 37.1h19.4v3.1l-44.1 52.6 44.2 52.6v3.1H663l-39.6-47.3h-30.8v47.3h-16.9z" style="fill:#fff"/></svg>