<svg xmlns="http://www.w3.org/2000/svg" xmlns:xlink="http://www.w3.org/1999/xlink" version="1.1" id="Capa_1" x="0" y="0" viewBox="0 0 736.8 176.5" style="enable-background:new 0 0 736.8 176.5" xml:space="preserve"><style>.st1{fill:#16202a}</style><defs><path id="SVGID_1_" d="M-184.9-153h1440v900h-1440z"/></defs><clipPath id="SVGID_00000123401009962207286510000010763673080712815256_"><use xlink:href="#SVGID_1_" style="overflow:visible"/></clipPath><g style="clip-path:url(#SVGID_00000123401009962207286510000010763673080712815256_)"><path class="st1" d="M1.2 74.2V25.5h27.7v24.3h27.5v24.5H28.9v37.5c0 6.1 1.4 10.5 4.2 13.3 2.8 2.8 6.5 4.2 11.1 4.2 5.6 0 12-2.2 19.3-6.7L73.6 144c-10.7 7.2-22 10.8-34 10.8-12.7 0-22.2-3.5-28.7-10.5s-9.7-17.2-9.7-30.5V74.2zm87.5 78V24.1h27.7v36.5C123 51.5 132.8 47 145.7 47c11.7 0 21.3 3.7 28.8 11.1 7.5 7.4 11.2 17 11.2 28.9v65.3H158V95.7c0-7.4-1.8-13.1-5.3-17-3.5-4-8.4-6-14.8-6-6.3 0-11.4 2-15.5 6s-6.1 9.7-6.1 17.2v56.3H88.7zM213.9 31.8c-3.2-3.2-4.8-7.1-4.8-11.8 0-4.7 1.6-8.7 4.8-11.9 3.2-3.3 7.1-4.9 11.8-4.9 4.7 0 8.6 1.6 11.9 4.9 3.2 3.3 4.8 7.2 4.8 11.9s-1.6 8.6-4.8 11.8c-3.2 3.2-7.2 4.8-11.9 4.8-4.6-.1-8.6-1.7-11.8-4.8zm-1.8 17.9h27.7v102.4h-27.7V49.7zm55 102.5V49.7H294v11.9c6.7-9.8 16.7-14.7 30.2-14.7 11.7 0 21.3 3.7 28.8 11.1 7.5 7.4 11.2 17 11.2 28.9v65.3h-27.7V95.7c0-7.4-1.8-13.1-5.3-17-3.5-4-8.4-6-14.8-6-6.3 0-11.4 2-15.5 6s-6.1 9.7-6.1 17.2v56.3h-27.7zm123.4 0V24.4h27.7v61.8h9.7l28.8-36.5h33.9L450.2 98l40.7 54.2h-34l-29.4-41.4h-9.3v41.4h-27.7z"/><path d="M506.6 61.9V3.1h27.7v56.4c0 7.8 1.9 13.6 5.7 17.4 3.8 3.8 8.9 5.6 15.2 5.6 6.3 0 11.4-1.9 15.2-5.6 3.8-3.8 5.7-9.6 5.7-17.4V3.1h27.7v58.8c0 7.8-1.3 14.8-3.9 20.9-2.6 6.1-6.2 10.9-10.8 14.5-4.6 3.6-9.7 6.4-15.4 8.2-5.7 1.9-11.9 2.8-18.4 2.8s-12.8-.9-18.5-2.8c-5.7-1.9-10.9-4.6-15.4-8.2-4.6-3.6-8.1-8.5-10.8-14.5-2.7-6.1-4-13.1-4-20.9z" style="fill:#15e5bd"/><path class="st1" d="M660.9 80.6c-4.9 5.3-7.3 12-7.3 20.2s2.4 15 7.3 20.3c4.9 5.3 11.2 8 19 8 8 0 14.4-2.7 19.2-8.1 4.8-5.4 7.2-12.1 7.2-20.2s-2.4-14.8-7.2-20.1c-4.8-5.4-11.2-8.1-19.2-8.1-7.8.1-14.1 2.7-19 8zm-33.5 94.8V49.7h27.1V61c7.5-9.4 17.7-14 30.5-14 14.1 0 25.9 5.1 35.3 15.4 9.5 10.3 14.2 23.1 14.2 38.5s-4.7 28.2-14.2 38.5-21.2 15.5-35.2 15.5c-12.5 0-22.5-4.4-30-13.3v33.8h-27.7z"/></g></svg>