<svg xmlns="http://www.w3.org/2000/svg" width="125.982" height="16.883" viewBox="0 0 125.982 16.883"><defs><clipPath id="clip-path"><path id="Clip_4" d="M105.931 16.883a6.68 6.68 0 0 1-4.307-1.335l1.159-1.855a4.66 4.66 0 0 0 3 1 3.239 3.239 0 0 0 1.957-.667 2.207 2.207 0 0 0 .9-1.876v-.375a3.657 3.657 0 0 1-2.961 1.4 4.473 4.473 0 0 1-3.459-1.459 5.215 5.215 0 0 1-1.32-3.63 4.919 4.919 0 0 1 1.324-3.486 4.554 4.554 0 0 1 3.459-1.407 3.635 3.635 0 0 1 2.961 1.418V3.4h2.776v8.066a5.186 5.186 0 0 1-1.563 3.95 5.535 5.535 0 0 1-3.926 1.467zm.124-11.11a2.182 2.182 0 0 0-1.687.719 2.677 2.677 0 0 0-.652 1.866 2.476 2.476 0 0 0 .652 1.771 2.428 2.428 0 0 0 3.386 0 2.5 2.5 0 0 0 .642-1.771 2.7 2.7 0 0 0-.642-1.866 2.176 2.176 0 0 0-1.699-.719zm-39.1 8.254a5.956 5.956 0 0 1-4.028-1.427 5 5 0 0 1-1.647-3.97 5.328 5.328 0 0 1 1.553-3.856 5.2 5.2 0 0 1 3.852-1.584 4.693 4.693 0 0 1 3.542 1.574A5.341 5.341 0 0 1 71.7 8.525l-.083 1.042h-7.458a2.593 2.593 0 0 0 2.837 2 5.578 5.578 0 0 0 2.838-.708l1.036 2.105a7.678 7.678 0 0 1-3.915 1.063zm-.435-8.42a2.333 2.333 0 0 0-1.471.521 2.762 2.762 0 0 0-.931 1.417h4.866a2.228 2.228 0 0 0-.849-1.417 2.6 2.6 0 0 0-1.615-.521zm-11.22 8.42a6.763 6.763 0 0 1-2.009-.3 6.787 6.787 0 0 1-1.45-.594 4.9 4.9 0 0 1-.766-.562l.974-2.043a5.873 5.873 0 0 0 3.251 1.144 2.925 2.925 0 0 0 1.2-.25.819.819 0 0 0 .559-.771c0-.4-.62-.745-1.843-1.022a7.51 7.51 0 0 1-2.692-1.1 2.455 2.455 0 0 1-.932-2.105 2.752 2.752 0 0 1 1.228-2.37 4.752 4.752 0 0 1 2.785-.865 8.342 8.342 0 0 1 3.811 1l-.973 2.042a6.185 6.185 0 0 0-2.838-.688 1.649 1.649 0 0 0-.86.229.689.689 0 0 0-.382.6c0 .374.488.662 1.45.855a10.58 10.58 0 0 1 1.47.4 6.671 6.671 0 0 1 1.264.615 2.7 2.7 0 0 1 .952.98 2.806 2.806 0 0 1 .332 1.386 2.972 2.972 0 0 1-1.574 2.692 6.076 6.076 0 0 1-1.45.553 6.557 6.557 0 0 1-1.507.174zm-11.2 0a5.454 5.454 0 0 1-3.914-1.584 5.2 5.2 0 0 1-1.616-3.836 5.182 5.182 0 0 1 1.626-3.835 5.6 5.6 0 0 1 7.807 0 5.181 5.181 0 0 1 1.625 3.835A5.182 5.182 0 0 1 48 12.443a5.419 5.419 0 0 1-3.909 1.584zm0-8.129a2.668 2.668 0 0 0-1.926.792 2.717 2.717 0 0 0 .011 3.835A2.713 2.713 0 0 0 46.8 8.608 2.713 2.713 0 0 0 44.091 5.9zm-16.991 8.129a3.1 3.1 0 0 1-2.474-.907 4.032 4.032 0 0 1-.777-2.678V5.648h-1.533V3.4h1.512V1.5l2.775-.067V3.4h2.858v2.248h-2.837v4.877c0 .719.293 1.084.87 1.084a2.112 2.112 0 0 0 .672-.114 3.244 3.244 0 0 0 .528-.219l.166-.125.788 2.105a4.661 4.661 0 0 1-2.548.771zm-10.251 0a6.763 6.763 0 0 1-2.009-.3 6.788 6.788 0 0 1-1.45-.594 4.814 4.814 0 0 1-.766-.562l.973-2.043a5.879 5.879 0 0 0 3.252 1.147 2.931 2.931 0 0 0 1.2-.25.819.819 0 0 0 .559-.771c0-.4-.62-.745-1.843-1.022a7.523 7.523 0 0 1-2.693-1.1 2.457 2.457 0 0 1-.932-2.105 2.751 2.751 0 0 1 1.232-2.366 4.752 4.752 0 0 1 2.786-.865 8.341 8.341 0 0 1 3.811 1l-.973 2.042a6.19 6.19 0 0 0-2.838-.688 1.649 1.649 0 0 0-.859.229.689.689 0 0 0-.383.6c0 .374.488.662 1.45.855a10.6 10.6 0 0 1 1.471.4 6.7 6.7 0 0 1 1.264.615 2.7 2.7 0 0 1 .952.98 2.807 2.807 0 0 1 .331 1.386 2.967 2.967 0 0 1-1.574 2.685 6.053 6.053 0 0 1-1.449.553 6.568 6.568 0 0 1-1.512.174zm-12.073 0a4.334 4.334 0 0 1-3.459-1.563A5.783 5.783 0 0 1 0 8.608a5.782 5.782 0 0 1 1.326-3.856 4.334 4.334 0 0 1 3.458-1.563A3.707 3.707 0 0 1 7.89 4.773V3.4h2.776v10.419H7.89v-1.355a3.723 3.723 0 0 1-3.106 1.563zM5.447 5.9a2.375 2.375 0 0 0-1.8.75 2.811 2.811 0 0 0-.683 1.959 2.784 2.784 0 0 0 .693 1.959 2.339 2.339 0 0 0 1.792.751 2.282 2.282 0 0 0 1.76-.751 2.807 2.807 0 0 0 .681-1.96 2.81 2.81 0 0 0-.683-1.959 2.284 2.284 0 0 0-1.76-.749zm86.774 7.92h-2.775V3.4h2.776v1.352a3.844 3.844 0 0 1 3.23-1.563A3.165 3.165 0 0 1 98.33 4.45a6.8 6.8 0 0 1 .807 3.637v5.731h-2.8V8.4a4.112 4.112 0 0 0-.331-1.928c-.22-.38-.708-.573-1.45-.573a2.136 2.136 0 0 0-1.7.75 2.924 2.924 0 0 0-.642 1.959v5.211zm-5.26 0h-2.775V3.929h2.775v9.888zm-5.26 0h-2.776V1.239L81.7.811v13.007zm-5.26 0h-2.776V2.05l2.775-.427v12.195zm-42.455 0H31.21V3.4h2.775v1.936a3.266 3.266 0 0 1 1.181-1.48 3.971 3.971 0 0 1 2.423-.667v3.043h-.007a3.769 3.769 0 0 0-2.706.864 3.668 3.668 0 0 0-.89 2.721v4zM86.961 2.865h-2.775V.428L86.961 0v2.864z" class="cls-1" data-name="Clip 4" transform="translate(.005 .023)"/></clipPath><style>.cls-1{fill:none}</style></defs><g id="Group_9" data-name="Group 9" transform="translate(0 -.043)"><path id="Fill_1" fill="#20273d" d="M105.931 16.883a6.68 6.68 0 0 1-4.307-1.335l1.159-1.855a4.66 4.66 0 0 0 3 1 3.239 3.239 0 0 0 1.957-.667 2.208 2.208 0 0 0 .9-1.877v-.374a3.657 3.657 0 0 1-2.961 1.4 4.473 4.473 0 0 1-3.459-1.459 5.215 5.215 0 0 1-1.32-3.63 4.916 4.916 0 0 1 1.324-3.486 4.554 4.554 0 0 1 3.459-1.407 3.635 3.635 0 0 1 2.961 1.418V3.4h2.776v8.066a5.186 5.186 0 0 1-1.563 3.95 5.535 5.535 0 0 1-3.926 1.467zm.124-11.11a2.182 2.182 0 0 0-1.687.719 2.679 2.679 0 0 0-.652 1.865 2.48 2.48 0 0 0 .652 1.772 2.428 2.428 0 0 0 3.386 0 2.5 2.5 0 0 0 .642-1.772 2.7 2.7 0 0 0-.642-1.865 2.176 2.176 0 0 0-1.699-.719zm-39.1 8.254a5.956 5.956 0 0 1-4.028-1.427 5 5 0 0 1-1.647-3.97 5.328 5.328 0 0 1 1.553-3.856 5.2 5.2 0 0 1 3.852-1.584 4.693 4.693 0 0 1 3.542 1.574A5.341 5.341 0 0 1 71.7 8.525l-.083 1.042h-7.458a2.593 2.593 0 0 0 2.837 2 5.586 5.586 0 0 0 2.838-.708l1.036 2.105a7.678 7.678 0 0 1-3.915 1.063zm-.435-8.42a2.333 2.333 0 0 0-1.471.521 2.766 2.766 0 0 0-.931 1.417h4.866a2.228 2.228 0 0 0-.849-1.417 2.6 2.6 0 0 0-1.615-.521zm-11.22 8.42a6.763 6.763 0 0 1-2.009-.3 6.787 6.787 0 0 1-1.45-.594 4.9 4.9 0 0 1-.766-.562l.974-2.043a5.878 5.878 0 0 0 3.251 1.144 2.925 2.925 0 0 0 1.2-.25.819.819 0 0 0 .559-.771c0-.4-.62-.745-1.843-1.022a7.51 7.51 0 0 1-2.692-1.1 2.455 2.455 0 0 1-.932-2.105 2.752 2.752 0 0 1 1.228-2.37 4.752 4.752 0 0 1 2.785-.865 8.342 8.342 0 0 1 3.811 1l-.973 2.042a6.185 6.185 0 0 0-2.838-.688 1.649 1.649 0 0 0-.86.229.689.689 0 0 0-.382.6c0 .374.488.662 1.45.855a10.58 10.58 0 0 1 1.47.4 6.671 6.671 0 0 1 1.264.615 2.7 2.7 0 0 1 .952.98 2.806 2.806 0 0 1 .332 1.386 2.972 2.972 0 0 1-1.574 2.692 6.076 6.076 0 0 1-1.45.553 6.557 6.557 0 0 1-1.507.174zm-11.2 0a5.454 5.454 0 0 1-3.914-1.584 5.2 5.2 0 0 1-1.616-3.836 5.182 5.182 0 0 1 1.626-3.835 5.6 5.6 0 0 1 7.807 0 5.181 5.181 0 0 1 1.625 3.835A5.182 5.182 0 0 1 48 12.443a5.419 5.419 0 0 1-3.909 1.584zm0-8.129a2.668 2.668 0 0 0-1.926.792 2.717 2.717 0 0 0 .011 3.835A2.713 2.713 0 0 0 46.8 8.608 2.713 2.713 0 0 0 44.091 5.9zm-16.991 8.129a3.1 3.1 0 0 1-2.474-.907 4.032 4.032 0 0 1-.777-2.678V5.648h-1.533V3.4h1.512V1.5l2.775-.067V3.4h2.858v2.248h-2.837v4.877c0 .719.293 1.084.87 1.084a2.112 2.112 0 0 0 .672-.114 3.244 3.244 0 0 0 .528-.219l.166-.125.788 2.105a4.661 4.661 0 0 1-2.548.771zm-10.251 0a6.763 6.763 0 0 1-2.009-.3 6.788 6.788 0 0 1-1.45-.594 4.814 4.814 0 0 1-.766-.562l.973-2.043a5.879 5.879 0 0 0 3.252 1.147 2.931 2.931 0 0 0 1.2-.25.819.819 0 0 0 .559-.771c0-.4-.62-.745-1.843-1.022a7.523 7.523 0 0 1-2.693-1.1 2.457 2.457 0 0 1-.932-2.105 2.751 2.751 0 0 1 1.232-2.366 4.752 4.752 0 0 1 2.786-.865 8.341 8.341 0 0 1 3.811 1l-.973 2.042a6.19 6.19 0 0 0-2.838-.688 1.649 1.649 0 0 0-.859.229.689.689 0 0 0-.383.6c0 .374.488.662 1.45.855a10.6 10.6 0 0 1 1.471.4 6.7 6.7 0 0 1 1.264.615 2.7 2.7 0 0 1 .952.98 2.807 2.807 0 0 1 .331 1.386 2.967 2.967 0 0 1-1.574 2.685 6.053 6.053 0 0 1-1.449.553 6.568 6.568 0 0 1-1.512.174zm-12.073 0a4.337 4.337 0 0 1-3.459-1.563A5.783 5.783 0 0 1 0 8.608a5.782 5.782 0 0 1 1.326-3.856 4.337 4.337 0 0 1 3.458-1.563A3.707 3.707 0 0 1 7.89 4.773V3.4h2.776v10.419H7.89v-1.355a3.723 3.723 0 0 1-3.106 1.563zM5.447 5.9a2.375 2.375 0 0 0-1.8.75 2.811 2.811 0 0 0-.683 1.959 2.784 2.784 0 0 0 .693 1.959 2.339 2.339 0 0 0 1.792.751 2.282 2.282 0 0 0 1.76-.751 2.807 2.807 0 0 0 .681-1.96 2.81 2.81 0 0 0-.683-1.959 2.284 2.284 0 0 0-1.76-.749zm86.774 7.92h-2.775V3.4h2.776v1.352a3.844 3.844 0 0 1 3.23-1.563A3.165 3.165 0 0 1 98.33 4.45a6.8 6.8 0 0 1 .807 3.637v5.731h-2.8V8.4a4.112 4.112 0 0 0-.331-1.928c-.22-.38-.708-.573-1.45-.573a2.136 2.136 0 0 0-1.7.75 2.924 2.924 0 0 0-.642 1.959v5.211zm-5.26 0h-2.775V3.929h2.775v9.888zm-5.26 0h-2.776V1.239L81.7.811v13.007zm-5.26 0h-2.776V2.05l2.776-.427v12.195zm-42.456 0H31.21V3.4h2.775v1.935a3.268 3.268 0 0 1 1.181-1.48 3.971 3.971 0 0 1 2.423-.667v3.044h-.007a3.769 3.769 0 0 0-2.706.864 3.668 3.668 0 0 0-.89 2.721v4zM86.961 2.865h-2.775V.428L86.961 0v2.864z" data-name="Fill 1" transform="translate(14.563 .043)"/><g id="Group_5" data-name="Group 5" transform="translate(14.558 .02)"><path id="Clip_4-2" d="M105.931 16.883a6.68 6.68 0 0 1-4.307-1.335l1.159-1.855a4.66 4.66 0 0 0 3 1 3.239 3.239 0 0 0 1.957-.667 2.207 2.207 0 0 0 .9-1.876v-.375a3.657 3.657 0 0 1-2.961 1.4 4.473 4.473 0 0 1-3.459-1.459 5.215 5.215 0 0 1-1.32-3.63 4.919 4.919 0 0 1 1.324-3.486 4.554 4.554 0 0 1 3.459-1.407 3.635 3.635 0 0 1 2.961 1.418V3.4h2.776v8.066a5.186 5.186 0 0 1-1.563 3.95 5.535 5.535 0 0 1-3.926 1.467zm.124-11.11a2.182 2.182 0 0 0-1.687.719 2.677 2.677 0 0 0-.652 1.866 2.476 2.476 0 0 0 .652 1.771 2.428 2.428 0 0 0 3.386 0 2.5 2.5 0 0 0 .642-1.771 2.7 2.7 0 0 0-.642-1.866 2.176 2.176 0 0 0-1.699-.719zm-39.1 8.254a5.956 5.956 0 0 1-4.028-1.427 5 5 0 0 1-1.647-3.97 5.328 5.328 0 0 1 1.553-3.856 5.2 5.2 0 0 1 3.852-1.584 4.693 4.693 0 0 1 3.542 1.574A5.341 5.341 0 0 1 71.7 8.525l-.083 1.042h-7.458a2.593 2.593 0 0 0 2.837 2 5.578 5.578 0 0 0 2.838-.708l1.036 2.105a7.678 7.678 0 0 1-3.915 1.063zm-.435-8.42a2.333 2.333 0 0 0-1.471.521 2.762 2.762 0 0 0-.931 1.417h4.866a2.228 2.228 0 0 0-.849-1.417 2.6 2.6 0 0 0-1.615-.521zm-11.22 8.42a6.763 6.763 0 0 1-2.009-.3 6.787 6.787 0 0 1-1.45-.594 4.9 4.9 0 0 1-.766-.562l.974-2.043a5.873 5.873 0 0 0 3.251 1.144 2.925 2.925 0 0 0 1.2-.25.819.819 0 0 0 .559-.771c0-.4-.62-.745-1.843-1.022a7.51 7.51 0 0 1-2.692-1.1 2.455 2.455 0 0 1-.932-2.105 2.752 2.752 0 0 1 1.228-2.37 4.752 4.752 0 0 1 2.785-.865 8.342 8.342 0 0 1 3.811 1l-.973 2.042a6.185 6.185 0 0 0-2.838-.688 1.649 1.649 0 0 0-.86.229.689.689 0 0 0-.382.6c0 .374.488.662 1.45.855a10.58 10.58 0 0 1 1.47.4 6.671 6.671 0 0 1 1.264.615 2.7 2.7 0 0 1 .952.98 2.806 2.806 0 0 1 .332 1.386 2.972 2.972 0 0 1-1.574 2.692 6.076 6.076 0 0 1-1.45.553 6.557 6.557 0 0 1-1.507.174zm-11.2 0a5.454 5.454 0 0 1-3.914-1.584 5.2 5.2 0 0 1-1.616-3.836 5.182 5.182 0 0 1 1.626-3.835 5.6 5.6 0 0 1 7.807 0 5.181 5.181 0 0 1 1.625 3.835A5.182 5.182 0 0 1 48 12.443a5.419 5.419 0 0 1-3.909 1.584zm0-8.129a2.668 2.668 0 0 0-1.926.792 2.717 2.717 0 0 0 .011 3.835A2.713 2.713 0 0 0 46.8 8.608 2.713 2.713 0 0 0 44.091 5.9zm-16.991 8.129a3.1 3.1 0 0 1-2.474-.907 4.032 4.032 0 0 1-.777-2.678V5.648h-1.533V3.4h1.512V1.5l2.775-.067V3.4h2.858v2.248h-2.837v4.877c0 .719.293 1.084.87 1.084a2.112 2.112 0 0 0 .672-.114 3.244 3.244 0 0 0 .528-.219l.166-.125.788 2.105a4.661 4.661 0 0 1-2.548.771zm-10.251 0a6.763 6.763 0 0 1-2.009-.3 6.788 6.788 0 0 1-1.45-.594 4.814 4.814 0 0 1-.766-.562l.973-2.043a5.879 5.879 0 0 0 3.252 1.147 2.931 2.931 0 0 0 1.2-.25.819.819 0 0 0 .559-.771c0-.4-.62-.745-1.843-1.022a7.523 7.523 0 0 1-2.693-1.1 2.457 2.457 0 0 1-.932-2.105 2.751 2.751 0 0 1 1.232-2.366 4.752 4.752 0 0 1 2.786-.865 8.341 8.341 0 0 1 3.811 1l-.973 2.042a6.19 6.19 0 0 0-2.838-.688 1.649 1.649 0 0 0-.859.229.689.689 0 0 0-.383.6c0 .374.488.662 1.45.855a10.6 10.6 0 0 1 1.471.4 6.7 6.7 0 0 1 1.264.615 2.7 2.7 0 0 1 .952.98 2.807 2.807 0 0 1 .331 1.386 2.967 2.967 0 0 1-1.574 2.685 6.053 6.053 0 0 1-1.449.553 6.568 6.568 0 0 1-1.512.174zm-12.073 0a4.334 4.334 0 0 1-3.459-1.563A5.783 5.783 0 0 1 0 8.608a5.782 5.782 0 0 1 1.326-3.856 4.334 4.334 0 0 1 3.458-1.563A3.707 3.707 0 0 1 7.89 4.773V3.4h2.776v10.419H7.89v-1.355a3.723 3.723 0 0 1-3.106 1.563zM5.447 5.9a2.375 2.375 0 0 0-1.8.75 2.811 2.811 0 0 0-.683 1.959 2.784 2.784 0 0 0 .693 1.959 2.339 2.339 0 0 0 1.792.751 2.282 2.282 0 0 0 1.76-.751 2.807 2.807 0 0 0 .681-1.96 2.81 2.81 0 0 0-.683-1.959 2.284 2.284 0 0 0-1.76-.749zm86.774 7.92h-2.775V3.4h2.776v1.352a3.844 3.844 0 0 1 3.23-1.563A3.165 3.165 0 0 1 98.33 4.45a6.8 6.8 0 0 1 .807 3.637v5.731h-2.8V8.4a4.112 4.112 0 0 0-.331-1.928c-.22-.38-.708-.573-1.45-.573a2.136 2.136 0 0 0-1.7.75 2.924 2.924 0 0 0-.642 1.959v5.211zm-5.26 0h-2.775V3.929h2.775v9.888zm-5.26 0h-2.776V1.239L81.7.811v13.007zm-5.26 0h-2.776V2.05l2.775-.427v12.195zm-42.455 0H31.21V3.4h2.775v1.936a3.266 3.266 0 0 1 1.181-1.48 3.971 3.971 0 0 1 2.423-.667v3.043h-.007a3.769 3.769 0 0 0-2.706.864 3.668 3.668 0 0 0-.89 2.721v4zM86.961 2.865h-2.775V.428L86.961 0v2.864z" class="cls-1" data-name="Clip 4" transform="translate(.005 .023)"/><g id="Group_5-2" clip-path="url(#clip-path)" data-name="Group 5"><path id="Fill_3" fill="#12172a" d="M0 28.1h122.563V0H0z" data-name="Fill 3" transform="translate(-5.567 -5.585)"/></g></g><g id="Group_8" data-name="Group 8" transform="translate(0 3.185)"><path id="Clip_7" d="M0 0h10.789v10.859H0z" class="cls-1" data-name="Clip 7" transform="translate(0 .038)"/><path id="Fill_6" fill="#2b48f0" d="M8.729 5.429A3.359 3.359 0 0 1 6.076.043 5.432 5.432 0 1 0 10.79 5.43a5.514 5.514 0 0 0-.043-.685 3.3 3.3 0 0 1-2.018.685" data-name="Fill 6" transform="translate(0 .038)"/></g></g></svg>