<svg xmlns="http://www.w3.org/2000/svg" width="93" height="41" viewBox="0 0 93 41" fill="none"><path d="M69.172 13.14h4.873V8.5l-4.873.775v3.865ZM6 33.047V14.829h4.839v1.02a9.119 9.119 0 0 1 4.55-1.444c2.428 0 4.102.716 5.022 2.147.919 1.431 1.38 3.643 1.383 6.637v9.858h-4.877v-9.728c0-1.553-.183-2.702-.547-3.446-.362-.742-1.092-1.112-2.183-1.112a8.293 8.293 0 0 0-2.883.51l-.436.15.01 13.626H6ZM35.186 14.83h4.873v18.218H35.22v-1.015c-1.746.961-3.262 1.443-4.55 1.443-2.522 0-4.22-.7-5.094-2.098-.874-1.4-1.313-3.73-1.316-6.994v-9.555h4.883v9.627c0 1.8.147 3.022.436 3.683.288.659.994.962 2.11.962a8.821 8.821 0 0 0 3.022-.51l.48-.145-.005-13.616Zm22.104 1.655c-1.176-1.396-3.037-2.093-5.584-2.093a10.51 10.51 0 0 0-3.93.962V9.761l-4.878.774V32.98l1.384.144c2.765.247 4.669.37 5.714.366 3.318 0 5.658-.687 7.02-2.06 1.361-1.373 2.04-3.859 2.037-7.456 0-3.593-.587-6.09-1.763-7.489Zm-4.022 11.446c-.557.789-1.648 1.183-3.272 1.183-.366 0-1.105-.048-2.22-.144v-9.732l.509-.11c.9-.247 1.83-.37 2.763-.366 2.037 0 3.056 1.64 3.056 4.923 0 2.04-.28 3.456-.836 4.246ZM66.116 9.76l-4.878.774V33.05h4.878V9.76Zm7.929 5.07v18.223h-4.878V14.83h4.878Zm8.443 4.153v7.47c-.01.517.01 1.035.057 1.55.034.302.175.58.4.784.302.242.686.36 1.071.327l2.767-.072L87 32.94a18.433 18.433 0 0 1-3.71.55c-2.184 0-3.676-.492-4.478-1.477-.8-.986-1.206-2.803-1.216-5.45v-7.58h-2.143v-4.154h2.143v-3.37l4.878-.717v4.111h4.478l.014 4.13h-4.478Z" fill="#2B3E51"/></svg>